999
DXF file: c-cat-blps0035-a-2d.dxf
999
Pro/ENGINEER 2016050 by Parametric Technology Corporation
  0
SECTION
  2
HEADER
  9
$ACADVER
  1
AC1014
  9
$DWGCODEPAGE
  3
ANSI_1252
  9
$EXTMAX
 10
420.0
 20
297.0
 30
0.0
  9
$EXTMIN
 10
0.0
 20
0.0
 30
0.0
  9
$LIMMIN
 10
0.0
 20
0.0
  9
$LIMMAX
 10
420.0
 20
297.0
  9
$VIEWCTR
 10
210.0
 20
148.5
  9
$VIEWSIZE
 40
297.0
  9
$CLAYER
  8
0
  9
$LTSCALE
 40
23.1
  9
$CELTYPE
  6
BYLAYER
  9
$DIMSCALE
 40
1.0
  9
$DIMASZ
 40
4.5
  9
$DIMEXO
 40
1.5
  9
$DIMDLI
 40
15.96
  9
$DIMEXE
 40
3.0
  9
$DIMCEN
 40
3.78
  9
$DIMLFAC
 40
0.0714285714
  9
$DIMBLK
  1
_CLOSED
  9
$DIMALT
 70
0
  9
$DIMALTF
 40
0.0393700787
  9
$DIMTXT
 40
3.0
  9
$DIMTOL
 70
1
  9
$DIMLIM
 70
0
  9
$DIMTFAC
 40
1.0
  9
$DIMTP
 40
0.01
  9
$DIMTM
 40
0.01
  9
$DIMGAP
 40
0.625
  9
$AUNITS
 70
0
  9
$PDMODE
 70
3
  9
$PDSIZE
 40
0.3125
  9
$HANDSEED
  5
357
  9
$TILEMODE
 70
1
  9
$MEASUREMENT
 70
1
  0
ENDSEC
  0
SECTION
  2
CLASSES
  0
ENDSEC
  0
SECTION
  2
TABLES
  0
TABLE
  2
VPORT
  5
8
100
AcDbSymbolTable
 70
2
  0
VPORT
  5
1F4
100
AcDbSymbolTableRecord
100
AcDbViewportTableRecord
  2
*ACTIVE
 70
0
 10
0.0
 20
0.0
 11
1.0
 21
1.0
 12
210.0
 22
148.5
 13
0.0
 23
0.0
 14
1.0
 24
1.0
 15
0.0
 25
0.0
 16
0.0
 26
0.0
 36
1.0
 17
0.0
 27
0.0
 37
0.0
 40
297.0
 41
1.4141414141
 42
50.0
 43
0.0
 44
0.0
 50
0.0
 51
0.0
 71
0
 72
100
 73
1
 74
1
 75
0
 76
0
 77
0
 78
0
  0
ENDTAB
  0
TABLE
  2
LTYPE
  5
5
100
AcDbSymbolTable
 70
6
  0
LTYPE
  5
14
100
AcDbSymbolTableRecord
100
AcDbLinetypeTableRecord
  2
BYBLOCK
 70
0
  3

 72
65
 73
0
 40
0.0
  0
LTYPE
  5
15
100
AcDbSymbolTableRecord
100
AcDbLinetypeTableRecord
  2
BYLAYER
 70
0
  3

 72
65
 73
0
 40
0.0
  0
LTYPE
  5
16
100
AcDbSymbolTableRecord
100
AcDbLinetypeTableRecord
  2
CONTINUOUS
 70
64
  3
Solid line
 72
65
 73
0
 40
0.0
  0
LTYPE
  5
1F5
100
AcDbSymbolTableRecord
100
AcDbLinetypeTableRecord
  2
CENTER
 70
64
  3
____ _ ____ _ ____ _ ____ _ ____ _ ____ _ ____
 72
65
 73
4
 40
0.6
 49
0.375
 74
0
 49
-0.075
 74
0
 49
0.075
 74
0
 49
-0.075
 74
0
  0
LTYPE
  5
1F6
100
AcDbSymbolTableRecord
100
AcDbLinetypeTableRecord
  2
HIDDEN
 70
64
  3
- - - - - - - - - - - - - - - - - - - -
 72
65
 73
2
 40
0.2
 49
0.1
 74
0
 49
-0.1
 74
0
  0
LTYPE
  5
1F7
100
AcDbSymbolTableRecord
100
AcDbLinetypeTableRecord
  2
PHANTOM
 70
64
  3
_____ _ _ _____ _ _ _____ _ _ _____
 72
65
 73
6
 40
0.8
 49
0.45
 74
0
 49
-0.05
 74
0
 49
0.1
 74
0
 49
-0.05
 74
0
 49
0.1
 74
0
 49
-0.05
 74
0
  0
LTYPE
  5
1F8
100
AcDbSymbolTableRecord
100
AcDbLinetypeTableRecord
  2
DOT
 70
64
  3
. . . . . . . . . . . . . . . . . . . .
 72
65
 73
2
 40
0.2
 49
0.1
 74
0
 49
-0.1
 74
0
  0
LTYPE
  5
1F9
100
AcDbSymbolTableRecord
100
AcDbLinetypeTableRecord
  2
DASHED
 70
64
  3
- - - - - - - - - - - - - - - - - - - -
 72
65
 73
2
 40
0.2
 49
0.1
 74
0
 49
-0.1
 74
0
  0
ENDTAB
  0
TABLE
  2
LAYER
  5
2
100
AcDbSymbolTable
 70
36
  0
LAYER
  5
10
100
AcDbSymbolTableRecord
100
AcDbLayerTableRecord
  2
0
 70
0
 62
7
  6
CONTINUOUS
  0
LAYER
  5
1FA
100
AcDbSymbolTableRecord
100
AcDbLayerTableRecord
  2
DEFAULT_1
 70
0
 62
7
  6
CENTER
  0
LAYER
  5
1FB
100
AcDbSymbolTableRecord
100
AcDbLayerTableRecord
  2
DEFAULT_2
 70
0
 62
8
  6
HIDDEN
  0
LAYER
  5
1FC
100
AcDbSymbolTableRecord
100
AcDbLayerTableRecord
  2
DEFAULT_3
 70
0
 62
7
  6
PHANTOM
  0
LAYER
  5
1FD
100
AcDbSymbolTableRecord
100
AcDbLayerTableRecord
  2
DRAFT_ENTITY
 70
0
 62
7
  6
CONTINUOUS
  0
LAYER
  5
1FE
100
AcDbSymbolTableRecord
100
AcDbLayerTableRecord
  2
DRAFT_GEOM
 70
0
 62
7
  6
CONTINUOUS
  0
LAYER
  5
1FF
100
AcDbSymbolTableRecord
100
AcDbLayerTableRecord
  2
DRAFT_GRP
 70
0
 62
7
  6
CONTINUOUS
  0
LAYER
  5
200
100
AcDbSymbolTableRecord
100
AcDbLayerTableRecord
  2
DRAFT_OTHER
 70
0
 62
7
  6
CONTINUOUS
  0
LAYER
  5
201
100
AcDbSymbolTableRecord
100
AcDbLayerTableRecord
  2
DTM_ALL
 70
0
 62
7
  6
CONTINUOUS
  0
LAYER
  5
202
100
AcDbSymbolTableRecord
100
AcDbLayerTableRecord
  2
DTM_AXIS
 70
0
 62
7
  6
CONTINUOUS
  0
LAYER
  5
203
100
AcDbSymbolTableRecord
100
AcDbLayerTableRecord
  2
DTM_MAJOR
 70
0
 62
7
  6
CONTINUOUS
  0
LAYER
  5
204
100
AcDbSymbolTableRecord
100
AcDbLayerTableRecord
  2
NOTE
 70
0
 62
7
  6
CONTINUOUS
  0
ENDTAB
  0
TABLE
  2
STYLE
  5
3
100
AcDbSymbolTable
 70
1
  0
STYLE
  5
11
100
AcDbSymbolTableRecord
100
AcDbTextStyleTableRecord
  2
STANDARD
 70
0
 40
0.0
 41
0.95
 50
0.0
 71
0
 42
0.2
  3
txt
  4

  0
STYLE
  5
205
100
AcDbSymbolTableRecord
100
AcDbTextStyleTableRecord
  2
TEXTSTYLE_1
 70
0
 40
0.0
 41
0.8
 50
0.0
 71
0
 42
0.2
  3
gdt
  4

  0
STYLE
  5
206
100
AcDbSymbolTableRecord
100
AcDbTextStyleTableRecord
  2
TEXTSTYLE_2
 70
0
 40
0.0
 41
0.8
 50
0.0
 71
0
 42
0.2
  3
txt
  4

  0
ENDTAB
  0
TABLE
  2
VIEW
  5
6
100
AcDbSymbolTable
 70
0
  0
ENDTAB
  0
TABLE
  2
UCS
  5
7
100
AcDbSymbolTable
 70
0
  0
ENDTAB
  0
TABLE
  2
APPID
  5
9
100
AcDbSymbolTable
 70
1
  0
APPID
  5
207
100
AcDbSymbolTableRecord
100
AcDbRegAppTableRecord
  2
ACAD
 70
0
  0
ENDTAB
  0
TABLE
  2
BLOCK_RECORD
  5
1
100
AcDbSymbolTable
 70
0
  0
BLOCK_RECORD
  5
1F
100
AcDbSymbolTableRecord
100
AcDbBlockTableRecord
  2
*MODEL_SPACE
  0
BLOCK_RECORD
  5
1B
100
AcDbSymbolTableRecord
100
AcDbBlockTableRecord
  2
*PAPER_SPACE
  0
BLOCK_RECORD
  5
208
100
AcDbSymbolTableRecord
100
AcDbBlockTableRecord
  2
TE_CONNECTIVITY_BL0
  0
ENDTAB
  0
TABLE
  2
DIMSTYLE
  5
A
100
AcDbSymbolTable
 70
1
  0
DIMSTYLE
105
209
100
AcDbSymbolTableRecord
100
AcDbDimStyleTableRecord
  2
STANDARD
 70
0
  3

  4

  5
_CLOSED
  6
_CLOSED
  7
_CLOSED
 40
1.0
 41
4.5
 42
1.5
 43
0.38
 44
3.0
 45
0.0
 46
0.0
 47
0.01
 48
0.01
140
3.0
141
0.09
142
0.0
143
25.4
144
1.0
145
0.0
146
1.0
147
0.625
 71
1.0
 72
0.0
 73
1
 74
1
 75
0
 76
0
 77
0
 78
8
170
0
171
2
172
0
173
0
174
0
175
0
176
0
177
0
178
0
270
2
271
2
272
2
273
2
274
2
275
0
280
0
281
0
282
0
283
1
284
8
285
0
286
0
287
3
288
0
340
11
  0
ENDTAB
  0
ENDSEC
  0
SECTION
  2
BLOCKS
  0
BLOCK
  5
20
100
AcDbEntity
  8
0
100
AcDbBlockBegin
  2
*MODEL_SPACE
 70
0
 10
0.0
 20
0.0
 30
0.0
  3
*MODEL_SPACE
  1

  0
ENDBLK
  5
21
100
AcDbEntity
  8
0
100
AcDbBlockEnd
  0
BLOCK
  5
1C
100
AcDbEntity
  8
0
100
AcDbBlockBegin
  2
*PAPER_SPACE
 70
0
 10
0.0
 20
0.0
 30
0.0
  3
*PAPER_SPACE
  1

  0
ENDBLK
  5
1D
100
AcDbEntity
  8
0
100
AcDbBlockEnd
  0
BLOCK
  5
20A
100
AcDbEntity
  8
0
100
AcDbBlockBegin
 62
2
  6
CONTINUOUS
  2
TE_CONNECTIVITY_BL0
 70
64
 10
315.0
 20
36.0
  3
TE_CONNECTIVITY_BL0
  1

  0
LINE
  5
20B
100
AcDbEntity
  8
0
100
AcDbLine
 62
2
  6
CONTINUOUS
 10
303.4442621268
 20
31.975
 11
311.2931594095
 21
31.975
  0
LINE
  5
20C
100
AcDbEntity
  8
0
100
AcDbLine
 62
2
  6
CONTINUOUS
 10
316.3319775183
 20
31.975
 11
318.4139164045
 21
31.975
  0
LINE
  5
20D
100
AcDbEntity
  8
0
100
AcDbLine
 62
2
  6
CONTINUOUS
 10
321.4865647769
 20
31.975
 11
327.8504615515
 21
31.975
  0
LINE
  5
20E
100
AcDbEntity
  8
0
100
AcDbLine
 62
2
  6
CONTINUOUS
 10
328.3338139487
 20
33.7788957044
 11
324.0176749741
 21
33.7788957044
  0
LINE
  5
20F
100
AcDbEntity
  8
0
100
AcDbLine
 62
2
  6
CONTINUOUS
 10
311.2931594095
 20
34.2561326711
 11
303.4442621268
 21
34.2561326711
  0
LINE
  5
210
100
AcDbEntity
  8
0
100
AcDbLine
 62
2
  6
CONTINUOUS
 10
301.1331145522
 20
34.8594322328
 11
308.9820118349
 21
34.8594322328
  0
LINE
  5
211
100
AcDbEntity
  8
0
100
AcDbLine
 62
2
  6
CONTINUOUS
 10
316.0776474878
 20
40.0249971366
 11
315.5942950906
 21
38.2211014322
  0
LINE
  5
212
100
AcDbEntity
  8
0
100
AcDbLine
 62
2
  6
CONTINUOUS
 10
324.4045177413
 20
35.2226125659
 11
328.2576583666
 21
35.2226125659
  0
LINE
  5
213
100
AcDbEntity
  8
0
100
AcDbLine
 62
2
  6
CONTINUOUS
 10
328.6887347141
 20
36.8314113971
 11
324.8355940889
 21
36.8314113971
  0
LINE
  5
214
100
AcDbEntity
  8
0
100
AcDbLine
 62
2
  6
CONTINUOUS
 10
308.9820118349
 20
37.1405649038
 11
301.1331145522
 21
37.1405649038
  0
LINE
  5
215
100
AcDbEntity
  8
0
100
AcDbLine
 62
2
  6
CONTINUOUS
 10
304.9810251894
 20
37.7438644655
 11
312.8299224721
 21
37.7438644655
  0
LINE
  5
216
100
AcDbEntity
  8
0
100
AcDbLine
 62
2
  6
CONTINUOUS
 10
318.0056153529
 20
38.2211014322
 11
316.3319775183
 21
31.975
  0
LINE
  5
217
100
AcDbEntity
  8
0
100
AcDbLine
 62
2
  6
CONTINUOUS
 10
315.5942950906
 20
38.2211014322
 11
318.0056153529
 21
38.2211014322
  0
LINE
  5
218
100
AcDbEntity
  8
0
100
AcDbLine
 62
2
  6
CONTINUOUS
 10
320.0875542391
 20
38.2211014322
 11
322.4988745014
 21
38.2211014322
  0
LINE
  5
219
100
AcDbEntity
  8
0
100
AcDbLine
 62
2
  6
CONTINUOUS
 10
325.2079604115
 20
38.2211014322
 11
329.5240993861
 21
38.2211014322
  0
LINE
  5
21A
100
AcDbEntity
  8
0
100
AcDbLine
 62
2
  6
CONTINUOUS
 10
330.0074517833
 20
40.0249971366
 11
323.6435550087
 21
40.0249971366
  0
LINE
  5
21B
100
AcDbEntity
  8
0
100
AcDbLine
 62
2
  6
CONTINUOUS
 10
322.9822268986
 20
40.0249971366
 11
316.0776474878
 21
40.0249971366
  0
LINE
  5
21C
100
AcDbEntity
  8
0
100
AcDbLine
 62
2
  6
CONTINUOUS
 10
312.8299224721
 20
40.0249971366
 11
304.9810251894
 21
40.0249971366
  0
LINE
  5
21D
100
AcDbEntity
  8
0
100
AcDbLine
 62
2
  6
CONTINUOUS
 10
318.4139164045
 20
31.975
 11
320.0875542391
 21
38.2211014322
  0
LINE
  5
21E
100
AcDbEntity
  8
0
100
AcDbLine
 62
2
  6
CONTINUOUS
 10
322.4988745014
 20
38.2211014322
 11
322.9822268986
 21
40.0249971366
  0
LINE
  5
21F
100
AcDbEntity
  8
0
100
AcDbLine
 62
2
  6
CONTINUOUS
 10
323.6435550087
 20
40.0249971366
 11
321.4865647769
 21
31.975
  0
LINE
  5
220
100
AcDbEntity
  8
0
100
AcDbLine
 62
2
  6
CONTINUOUS
 10
324.0176749741
 20
33.7788957044
 11
324.4045177413
 21
35.2226125659
  0
LINE
  5
221
100
AcDbEntity
  8
0
100
AcDbLine
 62
2
  6
CONTINUOUS
 10
324.8355940889
 20
36.8314113971
 11
325.2079604115
 21
38.2211014322
  0
LINE
  5
222
100
AcDbEntity
  8
0
100
AcDbLine
 62
2
  6
CONTINUOUS
 10
328.2576583666
 20
35.2226125659
 11
328.6887347141
 21
36.8314113971
  0
LINE
  5
223
100
AcDbEntity
  8
0
100
AcDbLine
 62
2
  6
CONTINUOUS
 10
327.8504615515
 20
31.975
 11
328.3338139487
 21
33.7788957044
  0
LINE
  5
224
100
AcDbEntity
  8
0
100
AcDbLine
 62
2
  6
CONTINUOUS
 10
329.5240993861
 20
38.2211014322
 11
330.0074517833
 21
40.0249971366
  0
ARC
  5
225
100
AcDbEntity
  8
0
100
AcDbCircle
 62
2
  6
CONTINUOUS
 10
304.9810251894
 20
38.884430801
 40
1.1405663355
100
AcDbArc
 50
90.0
 51
270.0
  0
ARC
  5
226
100
AcDbEntity
  8
0
100
AcDbCircle
 62
2
  6
CONTINUOUS
 10
312.8299224721
 20
38.884430801
 40
1.1405663355
100
AcDbArc
 50
270.0
 51
90.0
  0
ARC
  5
227
100
AcDbEntity
  8
0
100
AcDbCircle
 62
2
  6
CONTINUOUS
 10
311.2931594095
 20
33.1155663355
 40
1.1405663355
100
AcDbArc
 50
270.0
 51
90.0
  0
ARC
  5
228
100
AcDbEntity
  8
0
100
AcDbCircle
 62
2
  6
CONTINUOUS
 10
303.4442621268
 20
33.1155663355
 40
1.1405663355
100
AcDbArc
 50
90.0
 51
270.0
  0
ARC
  5
229
100
AcDbEntity
  8
0
100
AcDbCircle
 62
2
  6
CONTINUOUS
 10
308.9820118349
 20
35.9999985683
 40
1.1405663355
100
AcDbArc
 50
270.0
 51
90.0
  0
ARC
  5
22A
100
AcDbEntity
  8
0
100
AcDbCircle
 62
2
  6
CONTINUOUS
 10
301.1331145522
 20
35.9999985683
 40
1.1405663355
100
AcDbArc
 50
90.0
 51
270.0
  0
LWPOLYLINE
  5
22B
100
AcDbEntity
  8
0
100
AcDbPolyline
 62
2
  6
CONTINUOUS
 90
50
 70
0
 10
304.8321514087
 20
40.0152434035
 10
304.9810251894
 20
40.025
 10
312.8299224721
 20
40.025
 10
312.9787962529
 20
40.0152434035
 10
313.125122762
 20
39.9861346138
 10
313.2663983123
 20
39.9381727309
 10
313.4002056399
 20
39.8721869044
 10
313.5242552644
 20
39.7893041338
 10
313.6364246624
 20
39.6909331688
 10
313.7347945842
 20
39.5787645087
 10
313.8176818934
 20
39.4547140529
 10
313.883668365
 20
39.3209070004
 10
313.9316249522
 20
39.1796295507
 10
313.9607311046
 20
39.0333047528
 10
313.9704888077
 20
38.8844281057
 10
313.9607311046
 20
38.7355595087
 10
313.9316249522
 20
38.5892266607
 10
313.883668365
 20
38.447957261
 10
313.8176818934
 20
38.3141502086
 10
313.7347945842
 20
38.1900997527
 10
313.6364246624
 20
38.0779310926
 10
313.5242552644
 20
37.9795601276
 10
313.4002056399
 20
37.8966693071
 10
313.2663983123
 20
37.8306834805
 10
313.125122762
 20
37.7827296476
 10
312.9787962529
 20
37.7536208579
 10
304.9810251894
 20
37.7438642614
 10
304.8321514087
 20
37.7536208579
 10
304.6858248996
 20
37.7827296476
 10
304.5445493493
 20
37.8306834805
 10
304.4107420217
 20
37.8966693071
 10
304.2866923972
 20
37.9795601276
 10
304.1745229992
 20
38.0779310926
 10
304.0761530773
 20
38.1900997527
 10
303.9932657682
 20
38.3141502086
 10
303.9272792966
 20
38.447957261
 10
303.8793227094
 20
38.5892266607
 10
303.850216557
 20
38.7355595087
 10
303.8404588539
 20
38.8844281057
 10
303.850216557
 20
39.0333047528
 10
303.8793227094
 20
39.1796295507
 10
303.9272792966
 20
39.3209070004
 10
303.9932657682
 20
39.4547140529
 10
304.0761530773
 20
39.5787645087
 10
304.1745229992
 20
39.6909331688
 10
304.2866923972
 20
39.7893041338
 10
304.4107420217
 20
39.8721869044
 10
304.5445493493
 20
39.9381727309
 10
304.6858248996
 20
39.9861346138
 10
304.8321514087
 20
40.0152434035
  0
HATCH
  5
22C
100
AcDbEntity
  8
0
100
AcDbHatch
 62
2
  6
CONTINUOUS
 10
0.0
 20
0.0
 30
0.0
210
0.0
220
0.0
230
1.0
  2
SOLID
 70
1
 71
1
 91
1
 92
1
 93
49
 72
1
 10
304.8321514087
 20
40.0152434035
 11
304.9810251894
 21
40.025
 72
1
 10
304.9810251894
 20
40.025
 11
312.8299224721
 21
40.025
 72
1
 10
312.8299224721
 20
40.025
 11
312.9787962529
 21
40.0152434035
 72
1
 10
312.9787962529
 20
40.0152434035
 11
313.125122762
 21
39.9861346138
 72
1
 10
313.125122762
 20
39.9861346138
 11
313.2663983123
 21
39.9381727309
 72
1
 10
313.2663983123
 20
39.9381727309
 11
313.4002056399
 21
39.8721869044
 72
1
 10
313.4002056399
 20
39.8721869044
 11
313.5242552644
 21
39.7893041338
 72
1
 10
313.5242552644
 20
39.7893041338
 11
313.6364246624
 21
39.6909331688
 72
1
 10
313.6364246624
 20
39.6909331688
 11
313.7347945842
 21
39.5787645087
 72
1
 10
313.7347945842
 20
39.5787645087
 11
313.8176818934
 21
39.4547140529
 72
1
 10
313.8176818934
 20
39.4547140529
 11
313.883668365
 21
39.3209070004
 72
1
 10
313.883668365
 20
39.3209070004
 11
313.9316249522
 21
39.1796295507
 72
1
 10
313.9316249522
 20
39.1796295507
 11
313.9607311046
 21
39.0333047528
 72
1
 10
313.9607311046
 20
39.0333047528
 11
313.9704888077
 21
38.8844281057
 72
1
 10
313.9704888077
 20
38.8844281057
 11
313.9607311046
 21
38.7355595087
 72
1
 10
313.9607311046
 20
38.7355595087
 11
313.9316249522
 21
38.5892266607
 72
1
 10
313.9316249522
 20
38.5892266607
 11
313.883668365
 21
38.447957261
 72
1
 10
313.883668365
 20
38.447957261
 11
313.8176818934
 21
38.3141502086
 72
1
 10
313.8176818934
 20
38.3141502086
 11
313.7347945842
 21
38.1900997527
 72
1
 10
313.7347945842
 20
38.1900997527
 11
313.6364246624
 21
38.0779310926
 72
1
 10
313.6364246624
 20
38.0779310926
 11
313.5242552644
 21
37.9795601276
 72
1
 10
313.5242552644
 20
37.9795601276
 11
313.4002056399
 21
37.8966693071
 72
1
 10
313.4002056399
 20
37.8966693071
 11
313.2663983123
 21
37.8306834805
 72
1
 10
313.2663983123
 20
37.8306834805
 11
313.125122762
 21
37.7827296476
 72
1
 10
313.125122762
 20
37.7827296476
 11
312.9787962529
 21
37.7536208579
 72
1
 10
312.9787962529
 20
37.7536208579
 11
304.9810251894
 21
37.7438642614
 72
1
 10
304.9810251894
 20
37.7438642614
 11
304.8321514087
 21
37.7536208579
 72
1
 10
304.8321514087
 20
37.7536208579
 11
304.6858248996
 21
37.7827296476
 72
1
 10
304.6858248996
 20
37.7827296476
 11
304.5445493493
 21
37.8306834805
 72
1
 10
304.5445493493
 20
37.8306834805
 11
304.4107420217
 21
37.8966693071
 72
1
 10
304.4107420217
 20
37.8966693071
 11
304.2866923972
 21
37.9795601276
 72
1
 10
304.2866923972
 20
37.9795601276
 11
304.1745229992
 21
38.0779310926
 72
1
 10
304.1745229992
 20
38.0779310926
 11
304.0761530773
 21
38.1900997527
 72
1
 10
304.0761530773
 20
38.1900997527
 11
303.9932657682
 21
38.3141502086
 72
1
 10
303.9932657682
 20
38.3141502086
 11
303.9272792966
 21
38.447957261
 72
1
 10
303.9272792966
 20
38.447957261
 11
303.8793227094
 21
38.5892266607
 72
1
 10
303.8793227094
 20
38.5892266607
 11
303.850216557
 21
38.7355595087
 72
1
 10
303.850216557
 20
38.7355595087
 11
303.8404588539
 21
38.8844281057
 72
1
 10
303.8404588539
 20
38.8844281057
 11
303.850216557
 21
39.0333047528
 72
1
 10
303.850216557
 20
39.0333047528
 11
303.8793227094
 21
39.1796295507
 72
1
 10
303.8793227094
 20
39.1796295507
 11
303.9272792966
 21
39.3209070004
 72
1
 10
303.9272792966
 20
39.3209070004
 11
303.9932657682
 21
39.4547140529
 72
1
 10
303.9932657682
 20
39.4547140529
 11
304.0761530773
 21
39.5787645087
 72
1
 10
304.0761530773
 20
39.5787645087
 11
304.1745229992
 21
39.6909331688
 72
1
 10
304.1745229992
 20
39.6909331688
 11
304.2866923972
 21
39.7893041338
 72
1
 10
304.2866923972
 20
39.7893041338
 11
304.4107420217
 21
39.8721869044
 72
1
 10
304.4107420217
 20
39.8721869044
 11
304.5445493493
 21
39.9381727309
 72
1
 10
304.5445493493
 20
39.9381727309
 11
304.6858248996
 21
39.9861346138
 72
1
 10
304.6858248996
 20
39.9861346138
 11
304.8321514087
 21
40.0152434035
 97
1
330
22B
 75
0
 76
1
 98
1
 10
0.0
 20
0.0
  0
LWPOLYLINE
  5
22D
100
AcDbEntity
  8
0
100
AcDbPolyline
 62
2
  6
CONTINUOUS
 90
9
 70
0
 10
315.5942950906
 20
38.2211002917
 10
316.0776474878
 20
40.025
 10
322.9822268986
 20
40.025
 10
322.4988745014
 20
38.2211002917
 10
320.0875542391
 20
38.2211002917
 10
318.4139164045
 20
31.9750028634
 10
316.3319775183
 20
31.9750028634
 10
318.0056153529
 20
38.2211002917
 10
315.5942950906
 20
38.2211002917
  0
HATCH
  5
22E
100
AcDbEntity
  8
0
100
AcDbHatch
 62
2
  6
CONTINUOUS
 10
0.0
 20
0.0
 30
0.0
210
0.0
220
0.0
230
1.0
  2
SOLID
 70
1
 71
1
 91
1
 92
1
 93
8
 72
1
 10
315.5942950906
 20
38.2211002917
 11
316.0776474878
 21
40.025
 72
1
 10
316.0776474878
 20
40.025
 11
322.9822268986
 21
40.025
 72
1
 10
322.9822268986
 20
40.025
 11
322.4988745014
 21
38.2211002917
 72
1
 10
322.4988745014
 20
38.2211002917
 11
320.0875542391
 21
38.2211002917
 72
1
 10
320.0875542391
 20
38.2211002917
 11
318.4139164045
 21
31.9750028634
 72
1
 10
318.4139164045
 20
31.9750028634
 11
316.3319775183
 21
31.9750028634
 72
1
 10
316.3319775183
 20
31.9750028634
 11
318.0056153529
 21
38.2211002917
 72
1
 10
318.0056153529
 20
38.2211002917
 11
315.5942950906
 21
38.2211002917
 97
1
330
22D
 75
0
 76
1
 98
1
 10
0.0
 20
0.0
  0
LWPOLYLINE
  5
22F
100
AcDbEntity
  8
0
100
AcDbPolyline
 62
2
  6
CONTINUOUS
 90
6
 70
0
 10
330.0074517833
 20
40.025
 10
329.5240993861
 20
38.2211002917
 10
325.2079604115
 20
38.2211002917
 10
321.4865647769
 20
31.9750028634
 10
323.6435550087
 20
40.025
 10
330.0074517833
 20
40.025
  0
HATCH
  5
230
100
AcDbEntity
  8
0
100
AcDbHatch
 62
2
  6
CONTINUOUS
 10
0.0
 20
0.0
 30
0.0
210
0.0
220
0.0
230
1.0
  2
SOLID
 70
1
 71
1
 91
1
 92
1
 93
5
 72
1
 10
330.0074517833
 20
40.025
 11
329.5240993861
 21
38.2211002917
 72
1
 10
329.5240993861
 20
38.2211002917
 11
325.2079604115
 21
38.2211002917
 72
1
 10
325.2079604115
 20
38.2211002917
 11
321.4865647769
 21
31.9750028634
 72
1
 10
321.4865647769
 20
31.9750028634
 11
323.6435550087
 21
40.025
 72
1
 10
323.6435550087
 20
40.025
 11
330.0074517833
 21
40.025
 97
1
330
22F
 75
0
 76
1
 98
1
 10
0.0
 20
0.0
  0
SOLID
  5
231
100
AcDbEntity
  8
0
100
AcDbTrace
 62
2
  6
CONTINUOUS
 10
312.9787962529
 20
37.7536208579
 11
312.8299224721
 21
37.7438642614
 12
304.9810251894
 22
37.7438642614
 13
304.9810251894
 23
37.7438642614
  0
LWPOLYLINE
  5
232
100
AcDbEntity
  8
0
100
AcDbPolyline
 62
2
  6
CONTINUOUS
 90
50
 70
0
 10
300.9842407715
 20
37.1308086795
 10
301.1331145522
 20
37.140565276
 10
308.9820118349
 20
37.140565276
 10
309.1308856156
 20
37.1308086795
 10
309.2772121247
 20
37.1016998898
 10
309.418487675
 20
37.0537460569
 10
309.5522950027
 20
36.9877602304
 10
309.6763446272
 20
36.9048694098
 10
309.7885140251
 20
36.8064984448
 10
309.886883947
 20
36.6943297847
 10
309.9697712562
 20
36.5702793289
 10
310.0357577278
 20
36.4364722765
 10
310.083714315
 20
36.2952028767
 10
310.1128204673
 20
36.1488700288
 10
310.1225781704
 20
36.0000014317
 10
310.1128204673
 20
35.8511247847
 10
310.083714315
 20
35.7047999867
 10
310.0357577278
 20
35.563522537
 10
309.9697712562
 20
35.4297154846
 10
309.886883947
 20
35.3056650287
 10
309.7885140251
 20
35.1934963686
 10
309.6763446272
 20
35.0951254036
 10
309.5522950027
 20
35.0122426331
 10
309.418487675
 20
34.9462487565
 10
309.2772121247
 20
34.8982949236
 10
309.1308856156
 20
34.8691861339
 10
301.1331145522
 20
34.8594295374
 10
300.9842407715
 20
34.8691861339
 10
300.8379142624
 20
34.8982949236
 10
300.6966387121
 20
34.9462487565
 10
300.5628313844
 20
35.0122426331
 10
300.4387817599
 20
35.0951254036
 10
300.326612362
 20
35.1934963686
 10
300.2282424401
 20
35.3056650287
 10
300.1453551309
 20
35.4297154846
 10
300.0793686593
 20
35.563522537
 10
300.0314120721
 20
35.7047999867
 10
300.0023059198
 20
35.8511247847
 10
299.9925482167
 20
36.0000014317
 10
300.0023059198
 20
36.1488700288
 10
300.0314120721
 20
36.2952028767
 10
300.0793686593
 20
36.4364722765
 10
300.1453551309
 20
36.5702793289
 10
300.2282424401
 20
36.6943297847
 10
300.326612362
 20
36.8064984448
 10
300.4387817599
 20
36.9048694098
 10
300.5628313844
 20
36.9877602304
 10
300.6966387121
 20
37.0537460569
 10
300.8379142624
 20
37.1016998898
 10
300.9842407715
 20
37.1308086795
  0
HATCH
  5
233
100
AcDbEntity
  8
0
100
AcDbHatch
 62
2
  6
CONTINUOUS
 10
0.0
 20
0.0
 30
0.0
210
0.0
220
0.0
230
1.0
  2
SOLID
 70
1
 71
1
 91
1
 92
1
 93
49
 72
1
 10
300.9842407715
 20
37.1308086795
 11
301.1331145522
 21
37.140565276
 72
1
 10
301.1331145522
 20
37.140565276
 11
308.9820118349
 21
37.140565276
 72
1
 10
308.9820118349
 20
37.140565276
 11
309.1308856156
 21
37.1308086795
 72
1
 10
309.1308856156
 20
37.1308086795
 11
309.2772121247
 21
37.1016998898
 72
1
 10
309.2772121247
 20
37.1016998898
 11
309.418487675
 21
37.0537460569
 72
1
 10
309.418487675
 20
37.0537460569
 11
309.5522950027
 21
36.9877602304
 72
1
 10
309.5522950027
 20
36.9877602304
 11
309.6763446272
 21
36.9048694098
 72
1
 10
309.6763446272
 20
36.9048694098
 11
309.7885140251
 21
36.8064984448
 72
1
 10
309.7885140251
 20
36.8064984448
 11
309.886883947
 21
36.6943297847
 72
1
 10
309.886883947
 20
36.6943297847
 11
309.9697712562
 21
36.5702793289
 72
1
 10
309.9697712562
 20
36.5702793289
 11
310.0357577278
 21
36.4364722765
 72
1
 10
310.0357577278
 20
36.4364722765
 11
310.083714315
 21
36.2952028767
 72
1
 10
310.083714315
 20
36.2952028767
 11
310.1128204673
 21
36.1488700288
 72
1
 10
310.1128204673
 20
36.1488700288
 11
310.1225781704
 21
36.0000014317
 72
1
 10
310.1225781704
 20
36.0000014317
 11
310.1128204673
 21
35.8511247847
 72
1
 10
310.1128204673
 20
35.8511247847
 11
310.083714315
 21
35.7047999867
 72
1
 10
310.083714315
 20
35.7047999867
 11
310.0357577278
 21
35.563522537
 72
1
 10
310.0357577278
 20
35.563522537
 11
309.9697712562
 21
35.4297154846
 72
1
 10
309.9697712562
 20
35.4297154846
 11
309.886883947
 21
35.3056650287
 72
1
 10
309.886883947
 20
35.3056650287
 11
309.7885140251
 21
35.1934963686
 72
1
 10
309.7885140251
 20
35.1934963686
 11
309.6763446272
 21
35.0951254036
 72
1
 10
309.6763446272
 20
35.0951254036
 11
309.5522950027
 21
35.0122426331
 72
1
 10
309.5522950027
 20
35.0122426331
 11
309.418487675
 21
34.9462487565
 72
1
 10
309.418487675
 20
34.9462487565
 11
309.2772121247
 21
34.8982949236
 72
1
 10
309.2772121247
 20
34.8982949236
 11
309.1308856156
 21
34.8691861339
 72
1
 10
309.1308856156
 20
34.8691861339
 11
301.1331145522
 21
34.8594295374
 72
1
 10
301.1331145522
 20
34.8594295374
 11
300.9842407715
 21
34.8691861339
 72
1
 10
300.9842407715
 20
34.8691861339
 11
300.8379142624
 21
34.8982949236
 72
1
 10
300.8379142624
 20
34.8982949236
 11
300.6966387121
 21
34.9462487565
 72
1
 10
300.6966387121
 20
34.9462487565
 11
300.5628313844
 21
35.0122426331
 72
1
 10
300.5628313844
 20
35.0122426331
 11
300.4387817599
 21
35.0951254036
 72
1
 10
300.4387817599
 20
35.0951254036
 11
300.326612362
 21
35.1934963686
 72
1
 10
300.326612362
 20
35.1934963686
 11
300.2282424401
 21
35.3056650287
 72
1
 10
300.2282424401
 20
35.3056650287
 11
300.1453551309
 21
35.4297154846
 72
1
 10
300.1453551309
 20
35.4297154846
 11
300.0793686593
 21
35.563522537
 72
1
 10
300.0793686593
 20
35.563522537
 11
300.0314120721
 21
35.7047999867
 72
1
 10
300.0314120721
 20
35.7047999867
 11
300.0023059198
 21
35.8511247847
 72
1
 10
300.0023059198
 20
35.8511247847
 11
299.9925482167
 21
36.0000014317
 72
1
 10
299.9925482167
 20
36.0000014317
 11
300.0023059198
 21
36.1488700288
 72
1
 10
300.0023059198
 20
36.1488700288
 11
300.0314120721
 21
36.2952028767
 72
1
 10
300.0314120721
 20
36.2952028767
 11
300.0793686593
 21
36.4364722765
 72
1
 10
300.0793686593
 20
36.4364722765
 11
300.1453551309
 21
36.5702793289
 72
1
 10
300.1453551309
 20
36.5702793289
 11
300.2282424401
 21
36.6943297847
 72
1
 10
300.2282424401
 20
36.6943297847
 11
300.326612362
 21
36.8064984448
 72
1
 10
300.326612362
 20
36.8064984448
 11
300.4387817599
 21
36.9048694098
 72
1
 10
300.4387817599
 20
36.9048694098
 11
300.5628313844
 21
36.9877602304
 72
1
 10
300.5628313844
 20
36.9877602304
 11
300.6966387121
 21
37.0537460569
 72
1
 10
300.6966387121
 20
37.0537460569
 11
300.8379142624
 21
37.1016998898
 72
1
 10
300.8379142624
 20
37.1016998898
 11
300.9842407715
 21
37.1308086795
 97
1
330
232
 75
0
 76
1
 98
1
 10
0.0
 20
0.0
  0
LWPOLYLINE
  5
234
100
AcDbEntity
  8
0
100
AcDbPolyline
 62
2
  6
CONTINUOUS
 90
7
 70
0
 10
328.6887347141
 20
36.831413186
 10
328.2576583666
 20
35.2226132082
 10
324.4045177413
 20
35.2226132082
 10
321.4865647769
 20
31.9750028634
 10
325.2079604115
 20
38.2211002917
 10
324.8355940889
 20
36.831413186
 10
328.6887347141
 20
36.831413186
  0
HATCH
  5
235
100
AcDbEntity
  8
0
100
AcDbHatch
 62
2
  6
CONTINUOUS
 10
0.0
 20
0.0
 30
0.0
210
0.0
220
0.0
230
1.0
  2
SOLID
 70
1
 71
1
 91
1
 92
1
 93
6
 72
1
 10
328.6887347141
 20
36.831413186
 11
328.2576583666
 21
35.2226132082
 72
1
 10
328.2576583666
 20
35.2226132082
 11
324.4045177413
 21
35.2226132082
 72
1
 10
324.4045177413
 20
35.2226132082
 11
321.4865647769
 21
31.9750028634
 72
1
 10
321.4865647769
 20
31.9750028634
 11
325.2079604115
 21
38.2211002917
 72
1
 10
325.2079604115
 20
38.2211002917
 11
324.8355940889
 21
36.831413186
 72
1
 10
324.8355940889
 20
36.831413186
 11
328.6887347141
 21
36.831413186
 97
1
330
234
 75
0
 76
1
 98
1
 10
0.0
 20
0.0
  0
SOLID
  5
236
100
AcDbEntity
  8
0
100
AcDbTrace
 62
2
  6
CONTINUOUS
 10
309.1308856156
 20
34.8691861339
 11
308.9820118349
 21
34.8594295374
 12
301.1331145522
 22
34.8594295374
 13
301.1331145522
 23
34.8594295374
  0
LWPOLYLINE
  5
237
100
AcDbEntity
  8
0
100
AcDbPolyline
 62
2
  6
CONTINUOUS
 90
50
 70
0
 10
303.2953883461
 20
34.2463739555
 10
303.4442621268
 20
34.256130552
 10
311.2931594095
 20
34.256130552
 10
311.4420331903
 20
34.2463739555
 10
311.5883596994
 20
34.2172651658
 10
311.7296352496
 20
34.1693113329
 10
311.8634425773
 20
34.1033255064
 10
311.9874922018
 20
34.0204346859
 10
312.0996615998
 20
33.9220717708
 10
312.1980315216
 20
33.8099031107
 10
312.2809188308
 20
33.6858526549
 10
312.3469053024
 20
33.5520456025
 10
312.3948618896
 20
33.4107681527
 10
312.4239680419
 20
33.2644433548
 10
312.4337257451
 20
33.1155667077
 10
312.4239680419
 20
32.9666900607
 10
312.3948618896
 20
32.8203652627
 10
312.3469053024
 20
32.679087813
 10
312.2809188308
 20
32.5452807606
 10
312.1980315216
 20
32.4212303047
 10
312.0996615998
 20
32.3090616446
 10
311.9874922018
 20
32.2106906796
 10
311.8634425773
 20
32.1278079091
 10
311.7296352496
 20
32.0618220825
 10
311.5883596994
 20
32.0138601996
 10
311.4420331903
 20
31.98475946
 10
303.4442621268
 20
31.9750028634
 10
303.2953883461
 20
31.98475946
 10
303.149061837
 20
32.0138601996
 10
303.0077862867
 20
32.0618220825
 10
302.8739789591
 20
32.1278079091
 10
302.7499293345
 20
32.2106906796
 10
302.6377599366
 20
32.3090616446
 10
302.5393900147
 20
32.4212303047
 10
302.4565027056
 20
32.5452807606
 10
302.390516234
 20
32.679087813
 10
302.3425596467
 20
32.8203652627
 10
302.3134534944
 20
32.9666900607
 10
302.3036957913
 20
33.1155667077
 10
302.3134534944
 20
33.2644433548
 10
302.3425596467
 20
33.4107681527
 10
302.390516234
 20
33.5520456025
 10
302.4565027056
 20
33.6858526549
 10
302.5393900147
 20
33.8099031107
 10
302.6377599366
 20
33.9220717708
 10
302.7499293345
 20
34.0204346859
 10
302.8739789591
 20
34.1033255064
 10
303.0077862867
 20
34.1693113329
 10
303.149061837
 20
34.2172651658
 10
303.2953883461
 20
34.2463739555
  0
HATCH
  5
238
100
AcDbEntity
  8
0
100
AcDbHatch
 62
2
  6
CONTINUOUS
 10
0.0
 20
0.0
 30
0.0
210
0.0
220
0.0
230
1.0
  2
SOLID
 70
1
 71
1
 91
1
 92
1
 93
49
 72
1
 10
303.2953883461
 20
34.2463739555
 11
303.4442621268
 21
34.256130552
 72
1
 10
303.4442621268
 20
34.256130552
 11
311.2931594095
 21
34.256130552
 72
1
 10
311.2931594095
 20
34.256130552
 11
311.4420331903
 21
34.2463739555
 72
1
 10
311.4420331903
 20
34.2463739555
 11
311.5883596994
 21
34.2172651658
 72
1
 10
311.5883596994
 20
34.2172651658
 11
311.7296352496
 21
34.1693113329
 72
1
 10
311.7296352496
 20
34.1693113329
 11
311.8634425773
 21
34.1033255064
 72
1
 10
311.8634425773
 20
34.1033255064
 11
311.9874922018
 21
34.0204346859
 72
1
 10
311.9874922018
 20
34.0204346859
 11
312.0996615998
 21
33.9220717708
 72
1
 10
312.0996615998
 20
33.9220717708
 11
312.1980315216
 21
33.8099031107
 72
1
 10
312.1980315216
 20
33.8099031107
 11
312.2809188308
 21
33.6858526549
 72
1
 10
312.2809188308
 20
33.6858526549
 11
312.3469053024
 21
33.5520456025
 72
1
 10
312.3469053024
 20
33.5520456025
 11
312.3948618896
 21
33.4107681527
 72
1
 10
312.3948618896
 20
33.4107681527
 11
312.4239680419
 21
33.2644433548
 72
1
 10
312.4239680419
 20
33.2644433548
 11
312.4337257451
 21
33.1155667077
 72
1
 10
312.4337257451
 20
33.1155667077
 11
312.4239680419
 21
32.9666900607
 72
1
 10
312.4239680419
 20
32.9666900607
 11
312.3948618896
 21
32.8203652627
 72
1
 10
312.3948618896
 20
32.8203652627
 11
312.3469053024
 21
32.679087813
 72
1
 10
312.3469053024
 20
32.679087813
 11
312.2809188308
 21
32.5452807606
 72
1
 10
312.2809188308
 20
32.5452807606
 11
312.1980315216
 21
32.4212303047
 72
1
 10
312.1980315216
 20
32.4212303047
 11
312.0996615998
 21
32.3090616446
 72
1
 10
312.0996615998
 20
32.3090616446
 11
311.9874922018
 21
32.2106906796
 72
1
 10
311.9874922018
 20
32.2106906796
 11
311.8634425773
 21
32.1278079091
 72
1
 10
311.8634425773
 20
32.1278079091
 11
311.7296352496
 21
32.0618220825
 72
1
 10
311.7296352496
 20
32.0618220825
 11
311.5883596994
 21
32.0138601996
 72
1
 10
311.5883596994
 20
32.0138601996
 11
311.4420331903
 21
31.98475946
 72
1
 10
311.4420331903
 20
31.98475946
 11
303.4442621268
 21
31.9750028634
 72
1
 10
303.4442621268
 20
31.9750028634
 11
303.2953883461
 21
31.98475946
 72
1
 10
303.2953883461
 20
31.98475946
 11
303.149061837
 21
32.0138601996
 72
1
 10
303.149061837
 20
32.0138601996
 11
303.0077862867
 21
32.0618220825
 72
1
 10
303.0077862867
 20
32.0618220825
 11
302.8739789591
 21
32.1278079091
 72
1
 10
302.8739789591
 20
32.1278079091
 11
302.7499293345
 21
32.2106906796
 72
1
 10
302.7499293345
 20
32.2106906796
 11
302.6377599366
 21
32.3090616446
 72
1
 10
302.6377599366
 20
32.3090616446
 11
302.5393900147
 21
32.4212303047
 72
1
 10
302.5393900147
 20
32.4212303047
 11
302.4565027056
 21
32.5452807606
 72
1
 10
302.4565027056
 20
32.5452807606
 11
302.390516234
 21
32.679087813
 72
1
 10
302.390516234
 20
32.679087813
 11
302.3425596467
 21
32.8203652627
 72
1
 10
302.3425596467
 20
32.8203652627
 11
302.3134534944
 21
32.9666900607
 72
1
 10
302.3134534944
 20
32.9666900607
 11
302.3036957913
 21
33.1155667077
 72
1
 10
302.3036957913
 20
33.1155667077
 11
302.3134534944
 21
33.2644433548
 72
1
 10
302.3134534944
 20
33.2644433548
 11
302.3425596467
 21
33.4107681527
 72
1
 10
302.3425596467
 20
33.4107681527
 11
302.390516234
 21
33.5520456025
 72
1
 10
302.390516234
 20
33.5520456025
 11
302.4565027056
 21
33.6858526549
 72
1
 10
302.4565027056
 20
33.6858526549
 11
302.5393900147
 21
33.8099031107
 72
1
 10
302.5393900147
 20
33.8099031107
 11
302.6377599366
 21
33.9220717708
 72
1
 10
302.6377599366
 20
33.9220717708
 11
302.7499293345
 21
34.0204346859
 72
1
 10
302.7499293345
 20
34.0204346859
 11
302.8739789591
 21
34.1033255064
 72
1
 10
302.8739789591
 20
34.1033255064
 11
303.0077862867
 21
34.1693113329
 72
1
 10
303.0077862867
 20
34.1693113329
 11
303.149061837
 21
34.2172651658
 72
1
 10
303.149061837
 20
34.2172651658
 11
303.2953883461
 21
34.2463739555
 97
1
330
237
 75
0
 76
1
 98
1
 10
0.0
 20
0.0
  0
SOLID
  5
239
100
AcDbEntity
  8
0
100
AcDbTrace
 62
2
  6
CONTINUOUS
 10
311.4420331903
 20
31.98475946
 11
311.2931594095
 21
31.9750028634
 12
303.4442621268
 22
31.9750028634
 13
303.4442621268
 23
31.9750028634
  0
LWPOLYLINE
  5
23A
100
AcDbEntity
  8
0
100
AcDbPolyline
 62
2
  6
CONTINUOUS
 90
6
 70
0
 10
328.3338139487
 20
33.7788945218
 10
327.8504615515
 20
31.9750028634
 10
321.4865647769
 20
31.9750028634
 10
324.4045177413
 20
35.2226132082
 10
324.0176749741
 20
33.7788945218
 10
328.3338139487
 20
33.7788945218
  0
HATCH
  5
23B
100
AcDbEntity
  8
0
100
AcDbHatch
 62
2
  6
CONTINUOUS
 10
0.0
 20
0.0
 30
0.0
210
0.0
220
0.0
230
1.0
  2
SOLID
 70
1
 71
1
 91
1
 92
1
 93
5
 72
1
 10
328.3338139487
 20
33.7788945218
 11
327.8504615515
 21
31.9750028634
 72
1
 10
327.8504615515
 20
31.9750028634
 11
321.4865647769
 21
31.9750028634
 72
1
 10
321.4865647769
 20
31.9750028634
 11
324.4045177413
 21
35.2226132082
 72
1
 10
324.4045177413
 20
35.2226132082
 11
324.0176749741
 21
33.7788945218
 72
1
 10
324.0176749741
 20
33.7788945218
 11
328.3338139487
 21
33.7788945218
 97
1
330
23A
 75
0
 76
1
 98
1
 10
0.0
 20
0.0
  0
ENDBLK
  5
23C
100
AcDbEntity
  8
0
  6
BYBLOCK
 62
0
100
AcDbBlockEnd
  0
ENDSEC
  0
SECTION
  2
ENTITIES
  0
TEXT
  5
23D
100
AcDbEntity
  8
0
100
AcDbText
 62
2
  6
CONTINUOUS
 10
273.9447944556
 20
16.2331743479
  7
STANDARD
 40
1.5200002147
  1
SIZE
 41
0.95
 72
0
100
AcDbText
  0
TEXT
  5
23E
100
AcDbEntity
  8
0
100
AcDbText
 62
2
  6
CONTINUOUS
 10
287.5144966041
 20
16.2331819773
  7
STANDARD
 40
1.5200002147
  1
DRAWING NO
 41
0.95
 72
0
100
AcDbText
  0
TEXT
  5
23F
100
AcDbEntity
  8
0
100
AcDbText
 62
2
  6
CONTINUOUS
 10
354.2964949762
 20
16.2330905319
  7
STANDARD
 40
1.52
  1
VERSION
 41
0.95
 72
0
100
AcDbText
  0
TEXT
  5
240
100
AcDbEntity
  8
0
100
AcDbText
 62
2
  6
CONTINUOUS
 10
274.4447944556
 20
25.5657549143
  7
STANDARD
 40
1.5200002147
  1
NAME
 41
0.95
 72
0
100
AcDbText
  0
TEXT
  5
241
100
AcDbEntity
  8
0
100
AcDbText
 62
2
  6
CONTINUOUS
 10
276.2800492314
 20
10.3485471083
  7
STANDARD
 40
4.9999998868
  1
A3
 41
0.95
 72
0
100
AcDbText
  0
TEXT
  5
242
100
AcDbEntity
  8
0
100
AcDbText
 62
2
  6
CONTINUOUS
 10
297.3906714731
 20
21.1920805906
  7
TEXTSTYLE_2
 40
3.968
  1
CUSTOMER VIEW MODEL DRAWING
 41
0.8
 72
1
 11
340.2450714731
 21
21.1920805906
100
AcDbText
  0
TEXT
  5
243
100
AcDbEntity
  8
0
100
AcDbText
 62
2
  6
CONTINUOUS
 10
347.0299084682
 20
34.4224093775
  7
TEXTSTYLE_2
 40
2.5
  1
TE Connectivity Ltd.
 41
0.8
 72
0
100
AcDbText
  0
TEXT
  5
244
100
AcDbEntity
  8
0
100
AcDbText
 62
2
  6
CONTINUOUS
 10
369.5635822821
 20
16.2739597356
  7
STANDARD
 40
1.52
  1
DATE
 41
0.95
 72
0
100
AcDbText
  0
TEXT
  5
245
100
AcDbEntity
  8
0
100
AcDbText
 62
2
  6
CONTINUOUS
 10
174.6476862981
 20
23.8368677885
  7
TEXTSTYLE_2
 40
2.286
  1
THIS IS NOT A CONTROLLED DRAWING.
 41
0.8
 72
0
100
AcDbText
  0
TEXT
  5
246
100
AcDbEntity
  8
0
100
AcDbText
 62
2
  6
CONTINUOUS
 10
174.6476862981
 20
20.4078677885
  7
TEXTSTYLE_2
 40
2.286
  1
THIS IS A REPRESENTATION OF THE CUSTOMER VIEW MODEL.
 41
0.8
 72
0
100
AcDbText
  0
TEXT
  5
247
100
AcDbEntity
  8
0
100
AcDbText
 62
2
  6
CONTINUOUS
 10
174.6476862981
 20
16.9788677885
  7
TEXTSTYLE_2
 40
2.286
  1
    THIS IS NOT THE DOCUMENT OF SALE.
 41
0.8
 72
0
100
AcDbText
  0
TEXT
  5
248
100
AcDbEntity
  8
0
100
AcDbText
 62
2
  6
CONTINUOUS
 10
174.6476862981
 20
13.5498677885
  7
TEXTSTYLE_2
 40
2.286
  1
SEE THE CUSTOMER DRAWING FOR DESIGN PURPOSES.
 41
0.8
 72
0
100
AcDbText
  0
TEXT
  5
249
100
AcDbEntity
  8
0
100
AcDbText
 62
2
  6
CONTINUOUS
 10
22.7512107444
 20
282.4829655254
  7
TEXTSTYLE_2
 40
2.5
  1
c
 41
0.8
 72
0
100
AcDbText
  0
INSERT
  5
24A
100
AcDbEntity
  8
0
100
AcDbBlockReference
 62
2
  6
CONTINUOUS
  2
TE_CONNECTIVITY_BL0
 10
315.0
 20
36.0
  0
LINE
  5
24B
100
AcDbEntity
  8
0
100
AcDbLine
 62
2
  6
CONTINUOUS
 10
287.2090159416
 20
18.7593422635
 11
409.2090159416
 21
18.7593422635
  0
LINE
  5
24C
100
AcDbEntity
  8
0
100
AcDbLine
 62
2
  6
CONTINUOUS
 10
287.2090159416
 20
18.7593422635
 11
287.2090159416
 21
9.2342522635
  0
LINE
  5
24D
100
AcDbEntity
  8
0
100
AcDbLine
 62
2
  6
CONTINUOUS
 10
287.2090159416
 20
9.2342522635
 11
409.2090159416
 21
9.2342522635
  0
LINE
  5
24E
100
AcDbEntity
  8
0
100
AcDbLine
 62
2
  6
CONTINUOUS
 10
353.3340159416
 20
18.7593422635
 11
353.3340159416
 21
9.2342522635
  0
LINE
  5
24F
100
AcDbEntity
  8
0
100
AcDbLine
 62
2
  6
CONTINUOUS
 10
367.9590159416
 20
18.7593422635
 11
367.9590159416
 21
9.2342522635
  0
LINE
  5
250
100
AcDbEntity
  8
0
100
AcDbLine
 62
2
  6
CONTINUOUS
 10
409.2090159416
 20
18.7593422635
 11
409.2090159416
 21
9.2342522635
  0
TEXT
  5
251
100
AcDbEntity
  8
0
100
AcDbText
 62
2
  6
CONTINUOUS
 10
302.4635159416
 20
12.4067972635
  7
TEXTSTYLE_2
 40
3.18
  1
C-CAT-BLPS0035
 41
0.8
 72
1
 11
320.2715159416
 21
12.4067972635
100
AcDbText
  0
TEXT
  5
252
100
AcDbEntity
  8
0
100
AcDbText
 62
2
  6
CONTINUOUS
 10
359.3745159416
 20
12.4067972635
  7
TEXTSTYLE_2
 40
3.18
  1
A
 41
0.8
 72
1
 11
360.6465159416
 21
12.4067972635
100
AcDbText
  0
TEXT
  5
253
100
AcDbEntity
  8
0
100
AcDbText
 62
2
  6
CONTINUOUS
 10
377.1360159416
 20
12.4067972635
  7
TEXTSTYLE_2
 40
3.18
  1
06-Nov-18
 41
0.8
 72
1
 11
388.5840159416
 21
12.4067972635
100
AcDbText
  0
LINE
  5
254
100
AcDbEntity
  8
0
100
AcDbLine
 62
2
  6
CONTINUOUS
 10
17.7838797455
 20
287.0843544705
 11
132.7838797455
 21
287.0843544705
  0
LINE
  5
255
100
AcDbEntity
  8
0
100
AcDbLine
 62
2
  6
CONTINUOUS
 10
17.7838797455
 20
287.0843544705
 11
17.7838797455
 21
272.0843544705
  0
LINE
  5
256
100
AcDbEntity
  8
0
100
AcDbLine
 62
2
  6
CONTINUOUS
 10
17.7838797455
 20
272.0843544705
 11
132.7838797455
 21
272.0843544705
  0
LINE
  5
257
100
AcDbEntity
  8
0
100
AcDbLine
 62
2
  6
CONTINUOUS
 10
132.7838797455
 20
287.0843544705
 11
132.7838797455
 21
272.0843544705
  0
TEXT
  5
258
100
AcDbEntity
  8
0
100
AcDbText
 62
2
  6
CONTINUOUS
 10
17.8463797455
 20
282.0843544705
  7
TEXTSTYLE_2
 40
2.5
  1
  
 41
0.8
 72
0
100
AcDbText
  0
TEXT
  5
259
100
AcDbEntity
  8
0
100
AcDbText
 62
2
  6
CONTINUOUS
 10
21.8463797455
 20
282.0843544705
  7
TEXTSTYLE_1
 40
2.5
  1
e
 41
1.0
 72
0
100
AcDbText
  0
TEXT
  5
25A
100
AcDbEntity
  8
0
100
AcDbText
 62
2
  6
CONTINUOUS
 10
26.4297130788
 20
282.0843544705
  7
TEXTSTYLE_2
 40
2.5
  1
Copyright 
 41
0.8
 72
0
100
AcDbText
  0
TEXT
  5
25B
100
AcDbEntity
  8
0
100
AcDbText
 62
2
  6
CONTINUOUS
 10
46.4297130788
 20
282.0843544705
  7
TEXTSTYLE_2
 40
2.5
  1
06-Nov-18
 41
0.8
 72
0
100
AcDbText
  0
TEXT
  5
25C
100
AcDbEntity
  8
0
100
AcDbText
 62
2
  6
CONTINUOUS
 10
64.4297130788
 20
282.0843544705
  7
TEXTSTYLE_2
 40
2.5
  1
 TE Connectivity Ltd.
 41
0.8
 72
0
100
AcDbText
  0
TEXT
  5
25D
100
AcDbEntity
  8
0
100
AcDbText
 62
2
  6
CONTINUOUS
 10
17.8463797455
 20
278.3343544705
  7
TEXTSTYLE_2
 40
2.5
  1
 
 41
0.8
 72
0
100
AcDbText
  0
TEXT
  5
25E
100
AcDbEntity
  8
0
100
AcDbText
 62
2
  6
CONTINUOUS
 10
17.8463797455
 20
274.5843544705
  7
TEXTSTYLE_2
 40
2.5
  1
  family of companies.  All Rights Reserved.
 41
0.8
 72
0
100
AcDbText
  0
LINE
  5
25F
100
AcDbEntity
  8
0
100
AcDbLine
 62
7
  6
CONTINUOUS
 10
0.0
 20
0.0
 11
0.0
 21
297.0
  0
LINE
  5
260
100
AcDbEntity
  8
0
100
AcDbLine
 62
7
  6
CONTINUOUS
 10
17.7838797455
 20
9.2342568143
 11
17.7838797455
 21
287.0843544705
  0
LINE
  5
261
100
AcDbEntity
  8
0
100
AcDbLine
 62
7
  6
CONTINUOUS
 10
0.0
 20
0.0
 11
420.0
 21
0.0
  0
LINE
  5
262
100
AcDbEntity
  8
0
100
AcDbLine
 62
7
  6
CONTINUOUS
 10
409.2090201263
 20
9.2342568143
 11
17.7838797455
 21
9.2342568143
  0
LINE
  5
263
100
AcDbEntity
  8
0
100
AcDbLine
 62
7
  6
CONTINUOUS
 10
30.4841666107
 20
9.234348367
 11
17.784490097
 21
9.234348367
  0
LINE
  5
264
100
AcDbEntity
  8
0
100
AcDbLine
 62
7
  6
CONTINUOUS
 10
409.2090159416
 20
18.7593422635
 11
273.4388174896
 21
18.7593422635
  0
LINE
  5
265
100
AcDbEntity
  8
DRAFT_ENTITY
100
AcDbLine
 62
7
  6
CONTINUOUS
 10
409.2091421966
 20
28.2845192655
 11
273.4386343841
 21
28.2845192655
  0
LINE
  5
266
100
AcDbEntity
  8
0
100
AcDbLine
 62
7
  6
CONTINUOUS
 10
409.2091421966
 20
44.1593056424
 11
273.4386343841
 21
44.1593056424
  0
LINE
  5
267
100
AcDbEntity
  8
0
100
AcDbLine
 62
7
  6
CONTINUOUS
 10
273.4386343841
 20
44.1593056424
 11
273.4386343841
 21
9.2342568143
  0
LINE
  5
268
100
AcDbEntity
  8
0
100
AcDbLine
 62
7
  6
CONTINUOUS
 10
287.2079097655
 20
18.7593422635
 11
287.2079097655
 21
9.2342568143
  0
LINE
  5
269
100
AcDbEntity
  8
0
100
AcDbLine
 62
7
  6
CONTINUOUS
 10
353.3344447689
 20
18.7593808926
 11
353.3344447689
 21
9.2342954434
  0
LINE
  5
26A
100
AcDbEntity
  8
0
100
AcDbLine
 62
7
  6
CONTINUOUS
 10
17.7838797455
 20
287.0843544705
 11
409.208898056
 21
287.0843544705
  0
LINE
  5
26B
100
AcDbEntity
  8
0
100
AcDbLine
 62
7
  6
CONTINUOUS
 10
0.0
 20
297.0
 11
420.0
 21
297.0
  0
LINE
  5
26C
100
AcDbEntity
  8
0
100
AcDbLine
 62
7
  6
CONTINUOUS
 10
367.9586057154
 20
9.2337890544
 11
367.9586057154
 21
18.7587829509
  0
LINE
  5
26D
100
AcDbEntity
  8
0
100
AcDbLine
 62
7
  6
CONTINUOUS
 10
409.208898056
 20
287.0843544705
 11
409.2090201263
 21
9.2342568143
  0
LINE
  5
26E
100
AcDbEntity
  8
0
100
AcDbLine
 62
7
  6
CONTINUOUS
 10
420.0
 20
0.0
 11
420.0
 21
297.0
  0
LINE
  5
26F
100
AcDbEntity
  8
0
100
AcDbLine
 62
7
  6
CONTINUOUS
 10
254.8486484686
 20
232.3241024895
 11
255.8653261198
 21
235.6140756301
  0
LWPOLYLINE
  5
270
100
AcDbEntity
  8
0
100
AcDbPolyline
 62
7
  6
CONTINUOUS
 90
4
 70
0
 10
259.4594194182
 20
222.8781713933
 10
259.3765476703
 20
222.2448979286
 10
259.4817016346
 20
221.1636491116
 10
259.7959469437
 20
220.2956984756
  0
LINE
  5
271
100
AcDbEntity
  8
0
100
AcDbLine
 62
7
  6
CONTINUOUS
 10
259.2652453812
 20
228.5500827263
 11
259.0163122796
 21
227.4078132641
  0
LINE
  5
272
100
AcDbEntity
  8
0
100
AcDbLine
 62
7
  6
CONTINUOUS
 10
259.458508303
 20
222.8739995845
 11
260.1342533696
 21
225.974717683
  0
LINE
  5
273
100
AcDbEntity
  8
0
100
AcDbLine
 62
7
  6
CONTINUOUS
 10
263.8620558573
 20
231.0187217402
 11
263.6131235572
 21
229.8764559559
  0
LINE
  5
274
100
AcDbEntity
  8
0
100
AcDbLine
 62
7
  6
CONTINUOUS
 10
263.1446297899
 20
224.8887087337
 11
263.8060448702
 21
227.9237179108
  0
LWPOLYLINE
  5
275
100
AcDbEntity
  8
0
100
AcDbPolyline
 62
7
  6
CONTINUOUS
 90
7
 70
0
 10
266.8556269152
 20
205.909571371
 10
267.3207752444
 20
205.1556627912
 10
268.1530261976
 20
204.2788339461
 10
269.2060331955
 20
203.5519826878
 10
270.419358064
 20
203.0120179424
 10
271.7104468989
 20
202.6913854478
 10
272.7978741725
 20
202.6052951942
  0
LINE
  5
276
100
AcDbEntity
  8
0
100
AcDbLine
 62
7
  6
CONTINUOUS
 10
259.7969089936
 20
220.293734298
 11
266.8554665001
 21
205.9098981596
  0
LINE
  5
277
100
AcDbEntity
  8
0
100
AcDbLine
 62
7
  6
CONTINUOUS
 10
259.4669880876
 20
222.9129104364
 11
254.8486484686
 21
232.3241024895
  0
LINE
  5
278
100
AcDbEntity
  8
0
100
AcDbLine
 62
7
  6
CONTINUOUS
 10
261.6327727218
 20
219.3339378459
 11
268.691330148
 21
204.9501018712
  0
LINE
  5
279
100
AcDbEntity
  8
0
100
AcDbLine
 62
7
  6
CONTINUOUS
 10
259.8128760454
 20
224.5000728061
 11
259.3068971131
 21
225.5311500547
  0
LINE
  5
27A
100
AcDbEntity
  8
0
100
AcDbLine
 62
7
  6
CONTINUOUS
 10
259.8331139851
 20
224.5929378385
 11
259.3945016713
 21
225.4867362733
  0
LWPOLYLINE
  5
27B
100
AcDbEntity
  8
0
100
AcDbPolyline
 62
7
  6
CONTINUOUS
 90
6
 70
0
 10
319.9000385754
 20
202.6052950759
 10
321.0477247342
 20
202.7111035008
 10
322.2616498473
 20
203.1021777605
 10
323.2591654297
 20
203.7532815335
 10
323.9867746431
 20
204.6041974244
 10
324.2865794336
 20
205.1888492502
  0
LINE
  5
27C
100
AcDbEntity
  8
0
100
AcDbLine
 62
7
  6
CONTINUOUS
 10
272.7974979843
 20
202.6052950275
 11
319.9002412583
 21
202.6052950275
  0
LINE
  5
27D
100
AcDbEntity
  8
0
100
AcDbLine
 62
7
  6
CONTINUOUS
 10
272.1197128835
 20
203.2119795107
 11
319.2224558943
 21
203.2119795107
  0
LINE
  5
27E
100
AcDbEntity
  8
0
100
AcDbLine
 62
7
  6
CONTINUOUS
 10
319.9000385744
 20
202.6052950759
 11
319.9002411612
 21
202.6052950275
  0
LINE
  5
27F
100
AcDbEntity
  8
0
100
AcDbLine
 62
7
  6
CONTINUOUS
 10
332.1346738802
 20
206.2164875033
 11
324.7059368811
 21
206.2164875033
  0
LINE
  5
280
100
AcDbEntity
  8
0
100
AcDbLine
 62
7
  6
CONTINUOUS
 10
310.4580063102
 20
221.0720602064
 11
263.3552632994
 21
221.0720602064
  0
LINE
  5
281
100
AcDbEntity
  8
0
100
AcDbLine
 62
7
  6
CONTINUOUS
 10
310.2473728006
 20
224.8887087337
 11
263.1446297899
 21
224.8887087337
  0
LINE
  5
282
100
AcDbEntity
  8
0
100
AcDbLine
 62
7
  6
CONTINUOUS
 10
263.8060448702
 20
227.9237179108
 11
311.2679041367
 21
227.9237179108
  0
LINE
  5
283
100
AcDbEntity
  8
0
100
AcDbLine
 62
7
  6
CONTINUOUS
 10
263.7007281154
 20
229.8320421745
 11
311.162587382
 21
229.8320421745
  0
LINE
  5
284
100
AcDbEntity
  8
0
100
AcDbLine
 62
7
  6
CONTINUOUS
 10
263.6131235572
 20
229.8764559559
 11
311.2066017286
 21
229.8764559559
  0
LINE
  5
285
100
AcDbEntity
  8
0
100
AcDbLine
 62
7
  6
CONTINUOUS
 10
311.5906921741
 20
231.0187217402
 11
311.2066017286
 21
229.8764559559
  0
LINE
  5
286
100
AcDbEntity
  8
0
100
AcDbLine
 62
7
  6
CONTINUOUS
 10
310.2473728006
 20
224.8887087337
 11
311.2679041367
 21
227.9237179108
  0
LINE
  5
287
100
AcDbEntity
  8
0
100
AcDbLine
 62
7
  6
CONTINUOUS
 10
263.8620558573
 20
231.0187217402
 11
311.5906921741
 21
231.0187217402
  0
LINE
  5
288
100
AcDbEntity
  8
0
100
AcDbLine
 62
7
  6
CONTINUOUS
 10
254.8486484686
 20
232.3241024895
 11
319.3229246387
 21
232.3241024895
  0
LINE
  5
289
100
AcDbEntity
  8
0
100
AcDbLine
 62
7
  6
CONTINUOUS
 10
255.8653261198
 20
235.6140756301
 11
320.3396022899
 21
235.6140756301
  0
LINE
  5
28A
100
AcDbEntity
  8
0
100
AcDbLine
 62
7
  6
CONTINUOUS
 10
320.9449464719
 20
204.9501018712
 11
313.8863890458
 21
219.3339378459
  0
LINE
  5
28B
100
AcDbEntity
  8
0
100
AcDbLine
 62
7
  6
CONTINUOUS
 10
319.3229246387
 20
232.3241024895
 11
320.3396022899
 21
235.6140756301
  0
LINE
  5
28C
100
AcDbEntity
  8
0
100
AcDbLine
 62
7
  6
CONTINUOUS
 10
317.1041382718
 20
221.4124640128
 11
318.1246696079
 21
224.4474731899
  0
LINE
  5
28D
100
AcDbEntity
  8
0
100
AcDbLine
 62
7
  6
CONTINUOUS
 10
320.1616490131
 20
226.673415839
 11
319.7775585675
 21
225.5311500547
  0
LINE
  5
28E
100
AcDbEntity
  8
0
100
AcDbLine
 62
7
  6
CONTINUOUS
 10
324.1626956979
 20
207.028628038
 11
317.1041382718
 21
221.4124640128
  0
LINE
  5
28F
100
AcDbEntity
  8
0
100
AcDbLine
 62
7
  6
CONTINUOUS
 10
318.1246696079
 20
224.4474731899
 11
325.3021609638
 21
209.8212752091
  0
LINE
  5
290
100
AcDbEntity
  8
0
100
AcDbLine
 62
7
  6
CONTINUOUS
 10
319.7335442209
 20
225.4867362733
 11
326.9110355768
 21
210.8605382925
  0
LINE
  5
291
100
AcDbEntity
  8
0
100
AcDbLine
 62
7
  6
CONTINUOUS
 10
319.7775585675
 20
225.5311500547
 11
326.998640135
 21
210.8161245111
  0
LINE
  5
292
100
AcDbEntity
  8
0
100
AcDbLine
 62
7
  6
CONTINUOUS
 10
320.1616490131
 20
226.673415839
 11
327.4274929356
 21
211.8671741538
  0
LINE
  5
293
100
AcDbEntity
  8
0
100
AcDbLine
 62
7
  6
CONTINUOUS
 10
319.3229246387
 20
232.3241024895
 11
332.1346738802
 21
206.2164875033
  0
LINE
  5
294
100
AcDbEntity
  8
0
100
AcDbLine
 62
7
  6
CONTINUOUS
 10
320.3396022899
 20
235.6140756301
 11
333.1513515314
 21
209.5064606439
  0
LINE
  5
295
100
AcDbEntity
  8
0
100
AcDbLine
 62
7
  6
CONTINUOUS
 10
324.1626956979
 20
207.028628038
 11
325.3021609638
 21
209.8212752091
  0
LINE
  5
296
100
AcDbEntity
  8
0
100
AcDbLine
 62
7
  6
CONTINUOUS
 10
324.2848281415
 20
205.1844179341
 11
325.4523343975
 21
208.0458470966
  0
LINE
  5
297
100
AcDbEntity
  8
0
100
AcDbLine
 62
7
  6
CONTINUOUS
 10
327.4274929356
 20
211.8671741538
 11
326.998640135
 21
210.8161245111
  0
LINE
  5
298
100
AcDbEntity
  8
0
100
AcDbLine
 62
7
  6
CONTINUOUS
 10
327.5996273587
 20
209.6096258354
 11
327.1707744602
 21
208.5585759529
  0
LINE
  5
299
100
AcDbEntity
  8
0
100
AcDbLine
 62
7
  6
CONTINUOUS
 10
332.1346738802
 20
206.2164875033
 11
333.1513515314
 21
209.5064606439
  0
LINE
  5
29A
100
AcDbEntity
  8
0
100
AcDbLine
 62
7
  6
CONTINUOUS
 10
80.5
 20
76.3125
 11
80.5
 21
118.3125
  0
LINE
  5
29B
100
AcDbEntity
  8
0
100
AcDbLine
 62
7
  6
CONTINUOUS
 10
82.6
 20
85.4029067433
 11
82.6
 21
109.2220932567
  0
LINE
  5
29C
100
AcDbEntity
  8
0
100
AcDbLine
 62
7
  6
CONTINUOUS
 10
82.673370891
 20
85.4762776343
 11
82.673370891
 21
109.1487223657
  0
LINE
  5
29D
100
AcDbEntity
  8
0
100
AcDbLine
 62
7
  6
CONTINUOUS
 10
82.7448204976
 20
85.5477272409
 11
82.7448204976
 21
109.0772727591
  0
LINE
  5
29E
100
AcDbEntity
  8
0
100
AcDbLine
 62
7
  6
CONTINUOUS
 10
84.1429018463
 20
85.5477272409
 11
84.1429018463
 21
109.0772727591
  0
LINE
  5
29F
100
AcDbEntity
  8
0
100
AcDbLine
 62
7
  6
CONTINUOUS
 10
84.337848881
 20
108.8823257244
 11
84.337848881
 21
85.7426742756
  0
LINE
  5
2A0
100
AcDbEntity
  8
0
100
AcDbLine
 62
7
  6
CONTINUOUS
 10
87.1340115783
 20
108.8823257244
 11
87.1340115783
 21
85.7426742756
  0
LINE
  5
2A1
100
AcDbEntity
  8
0
100
AcDbLine
 62
7
  6
CONTINUOUS
 10
89.7352272409
 20
79.9554018463
 11
89.7352272409
 21
78.5573204976
  0
LINE
  5
2A2
100
AcDbEntity
  8
0
100
AcDbLine
 62
7
  6
CONTINUOUS
 10
89.7352272409
 20
114.6695981537
 11
89.7352272409
 21
116.0676795024
  0
LINE
  5
2A3
100
AcDbEntity
  8
0
100
AcDbLine
 62
7
  6
CONTINUOUS
 10
89.9301742756
 20
82.9465115783
 11
89.9301742756
 21
80.150348881
  0
LINE
  5
2A4
100
AcDbEntity
  8
0
100
AcDbLine
 62
7
  6
CONTINUOUS
 10
89.9301742756
 20
111.6784884217
 11
89.9301742756
 21
114.474651119
  0
LINE
  5
2A5
100
AcDbEntity
  8
0
100
AcDbLine
 62
7
  6
CONTINUOUS
 10
150.5
 20
76.3125
 11
80.5
 21
76.3125
  0
LINE
  5
2A6
100
AcDbEntity
  8
0
100
AcDbLine
 62
7
  6
CONTINUOUS
 10
141.4095932567
 20
78.4125
 11
89.5904067433
 21
78.4125
  0
LINE
  5
2A7
100
AcDbEntity
  8
0
100
AcDbLine
 62
7
  6
CONTINUOUS
 10
141.3362223657
 20
78.485870891
 11
89.6637776343
 21
78.485870891
  0
LINE
  5
2A8
100
AcDbEntity
  8
0
100
AcDbLine
 62
7
  6
CONTINUOUS
 10
141.2647727591
 20
78.5573204976
 11
89.7352272409
 21
78.5573204976
  0
LINE
  5
2A9
100
AcDbEntity
  8
0
100
AcDbLine
 62
7
  6
CONTINUOUS
 10
141.2647727591
 20
79.9554018463
 11
89.7352272409
 21
79.9554018463
  0
LINE
  5
2AA
100
AcDbEntity
  8
0
100
AcDbLine
 62
7
  6
CONTINUOUS
 10
89.9301742756
 20
80.150348881
 11
141.0698257244
 21
80.150348881
  0
LINE
  5
2AB
100
AcDbEntity
  8
0
100
AcDbLine
 62
7
  6
CONTINUOUS
 10
82.6
 20
85.4029067433
 11
82.673370891
 21
85.4762776343
  0
LINE
  5
2AC
100
AcDbEntity
  8
0
100
AcDbLine
 62
7
  6
CONTINUOUS
 10
84.337848881
 20
85.7426742756
 11
84.1429018463
 21
85.5477272409
  0
LINE
  5
2AD
100
AcDbEntity
  8
0
100
AcDbLine
 62
7
  6
CONTINUOUS
 10
89.9301742756
 20
82.9465115783
 11
141.0698257244
 21
82.9465115783
  0
LINE
  5
2AE
100
AcDbEntity
  8
0
100
AcDbLine
 62
7
  6
CONTINUOUS
 10
82.6
 20
109.2220932567
 11
82.673370891
 21
109.1487223657
  0
LINE
  5
2AF
100
AcDbEntity
  8
0
100
AcDbLine
 62
7
  6
CONTINUOUS
 10
84.337848881
 20
108.8823257244
 11
84.1429018463
 21
109.0772727591
  0
LINE
  5
2B0
100
AcDbEntity
  8
0
100
AcDbLine
 62
7
  6
CONTINUOUS
 10
84.1429018463
 20
85.5477272409
 11
82.7448204976
 21
85.5477272409
  0
LINE
  5
2B1
100
AcDbEntity
  8
0
100
AcDbLine
 62
7
  6
CONTINUOUS
 10
146.8570981537
 20
85.5477272409
 11
148.2551795024
 21
85.5477272409
  0
LINE
  5
2B2
100
AcDbEntity
  8
0
100
AcDbLine
 62
7
  6
CONTINUOUS
 10
87.1340115783
 20
85.7426742756
 11
84.337848881
 21
85.7426742756
  0
LINE
  5
2B3
100
AcDbEntity
  8
0
100
AcDbLine
 62
7
  6
CONTINUOUS
 10
143.8659884217
 20
85.7426742756
 11
146.662151119
 21
85.7426742756
  0
LINE
  5
2B4
100
AcDbEntity
  8
0
100
AcDbLine
 62
7
  6
CONTINUOUS
 10
89.9301742756
 20
80.150348881
 11
89.7352272409
 21
79.9554018463
  0
LINE
  5
2B5
100
AcDbEntity
  8
0
100
AcDbLine
 62
7
  6
CONTINUOUS
 10
89.9301742756
 20
114.474651119
 11
89.7352272409
 21
114.6695981537
  0
LINE
  5
2B6
100
AcDbEntity
  8
0
100
AcDbLine
 62
7
  6
CONTINUOUS
 10
89.5904067433
 20
78.4125
 11
89.6637776343
 21
78.485870891
  0
LINE
  5
2B7
100
AcDbEntity
  8
0
100
AcDbLine
 62
7
  6
CONTINUOUS
 10
89.5904067433
 20
116.2125
 11
89.6637776343
 21
116.139129109
  0
LINE
  5
2B8
100
AcDbEntity
  8
0
100
AcDbLine
 62
7
  6
CONTINUOUS
 10
141.4095932567
 20
116.2125
 11
141.3362223657
 21
116.139129109
  0
LINE
  5
2B9
100
AcDbEntity
  8
0
100
AcDbLine
 62
7
  6
CONTINUOUS
 10
141.4095932567
 20
78.4125
 11
141.3362223657
 21
78.485870891
  0
LINE
  5
2BA
100
AcDbEntity
  8
0
100
AcDbLine
 62
7
  6
CONTINUOUS
 10
141.0698257244
 20
114.474651119
 11
141.2647727591
 21
114.6695981537
  0
LINE
  5
2BB
100
AcDbEntity
  8
0
100
AcDbLine
 62
7
  6
CONTINUOUS
 10
141.0698257244
 20
80.150348881
 11
141.2647727591
 21
79.9554018463
  0
LINE
  5
2BC
100
AcDbEntity
  8
0
100
AcDbLine
 62
7
  6
CONTINUOUS
 10
146.662151119
 20
108.8823257244
 11
146.8570981537
 21
109.0772727591
  0
LINE
  5
2BD
100
AcDbEntity
  8
0
100
AcDbLine
 62
7
  6
CONTINUOUS
 10
87.1340115783
 20
108.8823257244
 11
84.337848881
 21
108.8823257244
  0
LINE
  5
2BE
100
AcDbEntity
  8
0
100
AcDbLine
 62
7
  6
CONTINUOUS
 10
143.8659884217
 20
108.8823257244
 11
146.662151119
 21
108.8823257244
  0
LINE
  5
2BF
100
AcDbEntity
  8
0
100
AcDbLine
 62
7
  6
CONTINUOUS
 10
84.1429018463
 20
109.0772727591
 11
82.7448204976
 21
109.0772727591
  0
LINE
  5
2C0
100
AcDbEntity
  8
0
100
AcDbLine
 62
7
  6
CONTINUOUS
 10
146.8570981537
 20
109.0772727591
 11
148.2551795024
 21
109.0772727591
  0
LINE
  5
2C1
100
AcDbEntity
  8
0
100
AcDbLine
 62
7
  6
CONTINUOUS
 10
146.662151119
 20
85.7426742756
 11
146.8570981537
 21
85.5477272409
  0
LINE
  5
2C2
100
AcDbEntity
  8
0
100
AcDbLine
 62
7
  6
CONTINUOUS
 10
148.4
 20
109.2220932567
 11
148.326629109
 21
109.1487223657
  0
LINE
  5
2C3
100
AcDbEntity
  8
0
100
AcDbLine
 62
7
  6
CONTINUOUS
 10
141.0698257244
 20
111.6784884217
 11
89.9301742756
 21
111.6784884217
  0
LINE
  5
2C4
100
AcDbEntity
  8
0
100
AcDbLine
 62
7
  6
CONTINUOUS
 10
148.4
 20
85.4029067433
 11
148.326629109
 21
85.4762776343
  0
LINE
  5
2C5
100
AcDbEntity
  8
0
100
AcDbLine
 62
7
  6
CONTINUOUS
 10
141.0698257244
 20
114.474651119
 11
89.9301742756
 21
114.474651119
  0
LINE
  5
2C6
100
AcDbEntity
  8
0
100
AcDbLine
 62
7
  6
CONTINUOUS
 10
89.7352272409
 20
114.6695981537
 11
141.2647727591
 21
114.6695981537
  0
LINE
  5
2C7
100
AcDbEntity
  8
0
100
AcDbLine
 62
7
  6
CONTINUOUS
 10
89.7352272409
 20
116.0676795024
 11
141.2647727591
 21
116.0676795024
  0
LINE
  5
2C8
100
AcDbEntity
  8
0
100
AcDbLine
 62
7
  6
CONTINUOUS
 10
89.6637776343
 20
116.139129109
 11
141.3362223657
 21
116.139129109
  0
LINE
  5
2C9
100
AcDbEntity
  8
0
100
AcDbLine
 62
7
  6
CONTINUOUS
 10
89.5904067433
 20
116.2125
 11
141.4095932567
 21
116.2125
  0
LINE
  5
2CA
100
AcDbEntity
  8
0
100
AcDbLine
 62
7
  6
CONTINUOUS
 10
80.5
 20
118.3125
 11
150.5
 21
118.3125
  0
LINE
  5
2CB
100
AcDbEntity
  8
0
100
AcDbLine
 62
7
  6
CONTINUOUS
 10
141.0698257244
 20
82.9465115783
 11
141.0698257244
 21
80.150348881
  0
LINE
  5
2CC
100
AcDbEntity
  8
0
100
AcDbLine
 62
7
  6
CONTINUOUS
 10
141.0698257244
 20
111.6784884217
 11
141.0698257244
 21
114.474651119
  0
LINE
  5
2CD
100
AcDbEntity
  8
0
100
AcDbLine
 62
7
  6
CONTINUOUS
 10
141.2647727591
 20
79.9554018463
 11
141.2647727591
 21
78.5573204976
  0
LINE
  5
2CE
100
AcDbEntity
  8
0
100
AcDbLine
 62
7
  6
CONTINUOUS
 10
141.2647727591
 20
114.6695981537
 11
141.2647727591
 21
116.0676795024
  0
LINE
  5
2CF
100
AcDbEntity
  8
0
100
AcDbLine
 62
7
  6
CONTINUOUS
 10
143.8659884217
 20
85.7426742756
 11
143.8659884217
 21
108.8823257244
  0
LINE
  5
2D0
100
AcDbEntity
  8
0
100
AcDbLine
 62
7
  6
CONTINUOUS
 10
146.662151119
 20
85.7426742756
 11
146.662151119
 21
108.8823257244
  0
LINE
  5
2D1
100
AcDbEntity
  8
0
100
AcDbLine
 62
7
  6
CONTINUOUS
 10
146.8570981537
 20
109.0772727591
 11
146.8570981537
 21
85.5477272409
  0
LINE
  5
2D2
100
AcDbEntity
  8
0
100
AcDbLine
 62
7
  6
CONTINUOUS
 10
148.2551795024
 20
109.0772727591
 11
148.2551795024
 21
85.5477272409
  0
LINE
  5
2D3
100
AcDbEntity
  8
0
100
AcDbLine
 62
7
  6
CONTINUOUS
 10
148.326629109
 20
109.1487223657
 11
148.326629109
 21
85.4762776343
  0
LINE
  5
2D4
100
AcDbEntity
  8
0
100
AcDbLine
 62
7
  6
CONTINUOUS
 10
148.4
 20
109.2220932567
 11
148.4
 21
85.4029067433
  0
LINE
  5
2D5
100
AcDbEntity
  8
0
100
AcDbLine
 62
7
  6
CONTINUOUS
 10
150.5
 20
118.3125
 11
150.5
 21
76.3125
  0
LINE
  5
2D6
100
AcDbEntity
  8
0
100
AcDbLine
 62
7
  6
CONTINUOUS
 10
80.5
 20
200.5625
 11
80.5
 21
204.7625
  0
LINE
  5
2D7
100
AcDbEntity
  8
0
100
AcDbLine
 62
7
  6
CONTINUOUS
 10
82.6
 20
200.5625
 11
82.673370891
 21
199.1625
  0
LINE
  5
2D8
100
AcDbEntity
  8
0
100
AcDbLine
 62
7
  6
CONTINUOUS
 10
84.337848881
 20
194.1159593225
 11
84.1429018463
 21
197.8357703387
  0
LINE
  5
2D9
100
AcDbEntity
  8
0
100
AcDbLine
 62
7
  6
CONTINUOUS
 10
89.5904067433
 20
200.5625
 11
89.6637776343
 21
199.1625
  0
LINE
  5
2DA
100
AcDbEntity
  8
0
100
AcDbLine
 62
7
  6
CONTINUOUS
 10
89.9301742756
 20
194.1159593225
 11
89.7352272409
 21
197.8357703387
  0
LINE
  5
2DB
100
AcDbEntity
  8
0
100
AcDbLine
 62
7
  6
CONTINUOUS
 10
89.7352272409
 20
197.8357703387
 11
89.7352272409
 21
199.1625
  0
LINE
  5
2DC
100
AcDbEntity
  8
0
100
AcDbLine
 62
7
  6
CONTINUOUS
 10
89.9301742756
 20
191.4625
 11
89.9301742756
 21
194.1159593225
  0
LINE
  5
2DD
100
AcDbEntity
  8
0
100
AcDbLine
 62
7
  6
CONTINUOUS
 10
143.8659884217
 20
191.4625
 11
87.1340115783
 21
191.4625
  0
LINE
  5
2DE
100
AcDbEntity
  8
0
100
AcDbLine
 62
7
  6
CONTINUOUS
 10
141.0698257244
 20
194.1159593225
 11
89.9301742756
 21
194.1159593225
  0
LINE
  5
2DF
100
AcDbEntity
  8
0
100
AcDbLine
 62
7
  6
CONTINUOUS
 10
89.7352272409
 20
197.8357703387
 11
141.2647727591
 21
197.8357703387
  0
LINE
  5
2E0
100
AcDbEntity
  8
0
100
AcDbLine
 62
7
  6
CONTINUOUS
 10
82.673370891
 20
199.1625
 11
148.326629109
 21
199.1625
  0
LINE
  5
2E1
100
AcDbEntity
  8
0
100
AcDbLine
 62
7
  6
CONTINUOUS
 10
80.5
 20
200.5625
 11
150.5
 21
200.5625
  0
LINE
  5
2E2
100
AcDbEntity
  8
0
100
AcDbLine
 62
7
  6
CONTINUOUS
 10
80.5
 20
204.7625
 11
150.5
 21
204.7625
  0
LINE
  5
2E3
100
AcDbEntity
  8
0
100
AcDbLine
 62
7
  6
CONTINUOUS
 10
141.0698257244
 20
191.4625
 11
141.0698257244
 21
194.1159593225
  0
LINE
  5
2E4
100
AcDbEntity
  8
0
100
AcDbLine
 62
7
  6
CONTINUOUS
 10
141.2647727591
 20
197.8357703387
 11
141.2647727591
 21
199.1625
  0
LINE
  5
2E5
100
AcDbEntity
  8
0
100
AcDbLine
 62
7
  6
CONTINUOUS
 10
141.0698257244
 20
194.1159593225
 11
141.2647727591
 21
197.8357703387
  0
LINE
  5
2E6
100
AcDbEntity
  8
0
100
AcDbLine
 62
7
  6
CONTINUOUS
 10
141.4095932567
 20
200.5625
 11
141.3362223657
 21
199.1625
  0
LINE
  5
2E7
100
AcDbEntity
  8
0
100
AcDbLine
 62
7
  6
CONTINUOUS
 10
150.5
 20
200.5625
 11
150.5
 21
204.7625
  0
LINE
  5
2E8
100
AcDbEntity
  8
0
100
AcDbLine
 62
7
  6
CONTINUOUS
 10
146.662151119
 20
194.1159593225
 11
146.857098087
 21
197.8357690651
  0
LINE
  5
2E9
100
AcDbEntity
  8
0
100
AcDbLine
 62
7
  6
CONTINUOUS
 10
148.4
 20
200.5625
 11
148.326629109
 21
199.1625
  0
LINE
  5
2EA
100
AcDbEntity
  8
0
100
AcDbLine
 62
7
  6
CONTINUOUS
 10
254.45
 20
76.3125
 11
258.65
 21
76.3125
  0
LINE
  5
2EB
100
AcDbEntity
  8
0
100
AcDbLine
 62
7
  6
CONTINUOUS
 10
254.45
 20
78.4125
 11
253.05
 21
78.485870891
  0
LINE
  5
2EC
100
AcDbEntity
  8
0
100
AcDbLine
 62
7
  6
CONTINUOUS
 10
248.0034593225
 20
80.150348881
 11
251.7232703387
 21
79.9554018463
  0
LINE
  5
2ED
100
AcDbEntity
  8
0
100
AcDbLine
 62
7
  6
CONTINUOUS
 10
251.7232703387
 20
85.5477272409
 11
253.05
 21
85.5477272409
  0
LINE
  5
2EE
100
AcDbEntity
  8
0
100
AcDbLine
 62
7
  6
CONTINUOUS
 10
245.35
 20
85.7426742756
 11
248.0034593225
 21
85.7426742756
  0
LINE
  5
2EF
100
AcDbEntity
  8
0
100
AcDbLine
 62
7
  6
CONTINUOUS
 10
254.45
 20
85.4029067433
 11
253.05
 21
85.4762776343
  0
LINE
  5
2F0
100
AcDbEntity
  8
0
100
AcDbLine
 62
7
  6
CONTINUOUS
 10
248.0034593225
 20
85.7426742756
 11
251.7232703387
 21
85.5477272409
  0
LINE
  5
2F1
100
AcDbEntity
  8
0
100
AcDbLine
 62
7
  6
CONTINUOUS
 10
245.35
 20
82.9465115783
 11
245.35
 21
111.6784884217
  0
LINE
  5
2F2
100
AcDbEntity
  8
0
100
AcDbLine
 62
7
  6
CONTINUOUS
 10
248.0034593225
 20
85.7426742756
 11
248.0034593225
 21
108.8823257244
  0
LINE
  5
2F3
100
AcDbEntity
  8
0
100
AcDbLine
 62
7
  6
CONTINUOUS
 10
251.7232703387
 20
109.0772727591
 11
251.7232703387
 21
85.5477272409
  0
LINE
  5
2F4
100
AcDbEntity
  8
0
100
AcDbLine
 62
7
  6
CONTINUOUS
 10
253.05
 20
116.139129109
 11
253.05
 21
78.485870891
  0
LINE
  5
2F5
100
AcDbEntity
  8
0
100
AcDbLine
 62
7
  6
CONTINUOUS
 10
254.45
 20
118.3125
 11
254.45
 21
76.3125
  0
LINE
  5
2F6
100
AcDbEntity
  8
0
100
AcDbLine
 62
7
  6
CONTINUOUS
 10
258.65
 20
118.3125
 11
258.65
 21
76.3125
  0
LINE
  5
2F7
100
AcDbEntity
  8
0
100
AcDbLine
 62
7
  6
CONTINUOUS
 10
248.0034593225
 20
108.8823257244
 11
251.7232703387
 21
109.0772727591
  0
LINE
  5
2F8
100
AcDbEntity
  8
0
100
AcDbLine
 62
7
  6
CONTINUOUS
 10
254.45
 20
109.2220932567
 11
253.05
 21
109.1487223657
  0
LINE
  5
2F9
100
AcDbEntity
  8
0
100
AcDbLine
 62
7
  6
CONTINUOUS
 10
245.35
 20
108.8823257244
 11
248.0034593225
 21
108.8823257244
  0
LINE
  5
2FA
100
AcDbEntity
  8
0
100
AcDbLine
 62
7
  6
CONTINUOUS
 10
251.7232703387
 20
109.0772727591
 11
253.05
 21
109.0772727591
  0
LINE
  5
2FB
100
AcDbEntity
  8
0
100
AcDbLine
 62
7
  6
CONTINUOUS
 10
248.0034593225
 20
114.474651119
 11
251.7232703387
 21
114.6695981537
  0
LINE
  5
2FC
100
AcDbEntity
  8
0
100
AcDbLine
 62
7
  6
CONTINUOUS
 10
254.45
 20
116.2125
 11
253.05
 21
116.139129109
  0
LINE
  5
2FD
100
AcDbEntity
  8
0
100
AcDbLine
 62
7
  6
CONTINUOUS
 10
254.45
 20
118.3125
 11
258.65
 21
118.3125
  0
ARC
  5
2FE
100
AcDbEntity
  8
0
100
AcDbCircle
 62
7
  6
CONTINUOUS
 10
272.797091621
 20
203.0304313645
 40
0.4250767256
100
AcDbArc
 50
268.2911429715
 51
270.0547722503
  0
ARC
  5
2FF
100
AcDbEntity
  8
0
100
AcDbCircle
 62
7
  6
CONTINUOUS
 10
141.2687973545
 20
85.5437026479
 40
6.9861543046
100
AcDbArc
 50
269.9669940326
 51
0.0330059477
  0
ARC
  5
300
100
AcDbEntity
  8
0
100
AcDbCircle
 62
7
  6
CONTINUOUS
 10
141.2687973525
 20
109.0812973549
 40
6.9861543041
100
AcDbArc
 50
359.9669940288
 51
90.0330059515
  0
ARC
  5
301
100
AcDbEntity
  8
0
100
AcDbCircle
 62
7
  6
CONTINUOUS
 10
89.7312026451
 20
109.0812973525
 40
6.9861543041
100
AcDbArc
 50
89.9669940291
 51
180.0330059512
  0
ARC
  5
302
100
AcDbEntity
  8
0
100
AcDbCircle
 62
7
  6
CONTINUOUS
 10
89.7312026475
 20
85.5437026451
 40
6.9861543041
100
AcDbArc
 50
179.9669940286
 51
270.0330059517
  0
ARC
  5
303
100
AcDbEntity
  8
0
100
AcDbCircle
 62
7
  6
CONTINUOUS
 10
141.0621108936
 20
108.8746108936
 40
5.6000493979
100
AcDbArc
 50
0.0789328202
 51
89.9210671807
  0
ARC
  5
304
100
AcDbEntity
  8
0
100
AcDbCircle
 62
7
  6
CONTINUOUS
 10
141.0621108936
 20
85.7503891064
 40
5.6000493979
100
AcDbArc
 50
270.0789328202
 51
359.9210671807
  0
ARC
  5
305
100
AcDbEntity
  8
0
100
AcDbCircle
 62
7
  6
CONTINUOUS
 10
89.9378891064
 20
108.8746108936
 40
5.6000493979
100
AcDbArc
 50
90.0789328202
 51
179.9210671807
  0
ARC
  5
306
100
AcDbEntity
  8
0
100
AcDbCircle
 62
7
  6
CONTINUOUS
 10
89.9378891064
 20
85.7503891064
 40
5.6000493979
100
AcDbArc
 50
180.0789328202
 51
269.9210671807
  0
ARC
  5
307
100
AcDbEntity
  8
0
100
AcDbCircle
 62
7
  6
CONTINUOUS
 10
141.2734242104
 20
109.0859242073
 40
5.5834086551
100
AcDbArc
 50
359.9112242392
 51
90.0887758509
  0
ARC
  5
308
100
AcDbEntity
  8
0
100
AcDbCircle
 62
7
  6
CONTINUOUS
 10
141.2734242086
 20
85.5390757883
 40
5.5834086535
100
AcDbArc
 50
269.9112242263
 51
0.0887758638
  0
ARC
  5
309
100
AcDbEntity
  8
0
100
AcDbCircle
 62
7
  6
CONTINUOUS
 10
89.7265757887
 20
85.5390757918
 40
5.5834086539
100
AcDbArc
 50
179.9112242297
 51
270.0887758604
  0
ARC
  5
30A
100
AcDbEntity
  8
0
100
AcDbCircle
 62
7
  6
CONTINUOUS
 10
89.7265757909
 20
109.0859242122
 40
5.5834086529
100
AcDbArc
 50
89.9112242213
 51
180.0887758687
  0
CIRCLE
  5
30B
100
AcDbEntity
  8
0
100
AcDbCircle
 62
7
  6
CONTINUOUS
 10
138.6
 20
88.2125
 40
3.5
  0
CIRCLE
  5
30C
100
AcDbEntity
  8
0
100
AcDbCircle
 62
7
  6
CONTINUOUS
 10
92.4
 20
106.4125
 40
3.5
  0
ARC
  5
30D
100
AcDbEntity
  8
0
100
AcDbCircle
 62
7
  6
CONTINUOUS
 10
141.0713454528
 20
108.8838423764
 40
2.7945757834
100
AcDbArc
 50
359.9689055983
 51
90.0311574388
  0
ARC
  5
30E
100
AcDbEntity
  8
0
100
AcDbCircle
 62
7
  6
CONTINUOUS
 10
89.9286545465
 20
85.7411576248
 40
2.7945757837
100
AcDbArc
 50
179.9689056228
 51
270.0311574538
  0
ARC
  5
30F
100
AcDbEntity
  8
0
100
AcDbCircle
 62
7
  6
CONTINUOUS
 10
141.0713423766
 20
85.7411545471
 40
2.7945757833
100
AcDbArc
 50
269.9689055949
 51
0.0311574422
  0
ARC
  5
310
100
AcDbEntity
  8
0
100
AcDbCircle
 62
7
  6
CONTINUOUS
 10
89.9286576247
 20
108.8838454535
 40
2.7945757837
100
AcDbArc
 50
89.9689056224
 51
180.0311574539
  0
ARC
  5
311
100
AcDbEntity
  8
0
100
AcDbCircle
 62
7
  6
CONTINUOUS
 10
143.8659884217
 20
194.2625
 40
2.8
100
AcDbArc
 50
270.0
 51
357.0
  0
ARC
  5
312
100
AcDbEntity
  8
0
100
AcDbCircle
 62
7
  6
CONTINUOUS
 10
87.1340115783
 20
194.2625
 40
2.8
100
AcDbArc
 50
183.0
 51
269.9999999998
  0
ARC
  5
313
100
AcDbEntity
  8
0
100
AcDbCircle
 62
7
  6
CONTINUOUS
 10
82.7448204976
 20
197.7625
 40
1.4
100
AcDbArc
 50
3.0
 51
90.0
  0
ARC
  5
314
100
AcDbEntity
  8
0
100
AcDbCircle
 62
7
  6
CONTINUOUS
 10
148.2551795024
 20
197.7625
 40
1.4
100
AcDbArc
 50
90.0
 51
177.0
  0
ARC
  5
315
100
AcDbEntity
  8
0
100
AcDbCircle
 62
7
  6
CONTINUOUS
 10
248.15
 20
111.6784884217
 40
2.8
100
AcDbArc
 50
93.0
 51
180.0
  0
ARC
  5
316
100
AcDbEntity
  8
0
100
AcDbCircle
 62
7
  6
CONTINUOUS
 10
248.15
 20
82.9465115783
 40
2.8
100
AcDbArc
 50
180.0
 51
267.0
  0
ARC
  5
317
100
AcDbEntity
  8
0
100
AcDbCircle
 62
7
  6
CONTINUOUS
 10
251.65
 20
116.0676795024
 40
1.4
100
AcDbArc
 50
273.0
 51
360.0
  0
ARC
  5
318
100
AcDbEntity
  8
0
100
AcDbCircle
 62
7
  6
CONTINUOUS
 10
251.65
 20
78.5573204976
 40
1.4
100
AcDbArc
 50
0.0
 51
87.0
  0
SPLINE
  5
319
100
AcDbEntity
  8
0
100
AcDbSpline
 62
7
  6
CONTINUOUS
 70
0
 71
3
 72
27
 73
23
 74
0
 42
0.0000001
 43
0.0000001
 44
0.0000000001
 40
0.0
 40
0.0
 40
0.0
 40
0.0
 40
0.0542982022
 40
0.113942239
 40
0.1456627141
 40
0.1785379888
 40
0.2473416358
 40
0.3193944642
 40
0.3934675492
 40
0.4682292191
 40
0.5423140473
 40
0.6143894122
 40
0.6832411756
 40
0.7478465693
 40
0.7783405427
 40
0.8075382239
 40
0.8619219077
 40
0.911318122
 40
0.9344614586
 40
0.9567923099
 40
0.9785471541
 40
1.0
 40
1.0
 40
1.0
 40
1.0
 10
318.5649635438
 20
206.4853699449
 30
0.0
 10
318.5032954706
 20
206.6110363376
 30
0.0
 10
318.3464141275
 20
206.8615864653
 30
0.0
 10
318.0980562309
 20
207.1449739904
 30
0.0
 10
317.8637025581
 20
207.363571162
 30
0.0
 10
317.5977537468
 20
207.5819373656
 30
0.0
 10
317.2266232963
 20
207.8344935887
 30
0.0
 10
316.7376279571
 20
208.0969922696
 30
0.0
 10
316.2110854385
 20
208.3161655182
 30
0.0
 10
315.6613054624
 20
208.4864160237
 30
0.0
 10
315.1029128524
 20
208.6028904797
 30
0.0
 10
314.5508861373
 20
208.6627390633
 30
0.0
 10
314.0199916769
 20
208.6641842106
 30
0.0
 10
313.5988428863
 20
208.6157467848
 30
0.0
 10
313.2857467325
 20
208.5462962075
 30
0.0
 10
313.0039208422
 20
208.4615025066
 30
0.0
 10
312.6880137019
 20
208.3238578384
 30
0.0
 10
312.416750601
 20
208.1357741574
 30
0.0
 10
312.2440220871
 20
207.9617896718
 30
0.0
 10
312.1383267791
 20
207.8237736654
 30
0.0
 10
312.0545869183
 20
207.6764156987
 30
0.0
 10
312.0138439353
 20
207.5722483559
 30
0.0
 10
311.9974865788
 20
207.5194166668
 30
0.0
  0
SPLINE
  5
31A
100
AcDbEntity
  8
0
100
AcDbSpline
 62
7
  6
CONTINUOUS
 70
0
 71
3
 72
27
 73
23
 74
0
 42
0.0000001
 43
0.0000001
 44
0.0000000001
 40
0.0
 40
0.0
 40
0.0
 40
0.0
 40
0.0542982022
 40
0.113942239
 40
0.1456627141
 40
0.1785379888
 40
0.2473416358
 40
0.3193944642
 40
0.3934675492
 40
0.4682292191
 40
0.5423140473
 40
0.6143894122
 40
0.6832411756
 40
0.7478465693
 40
0.7783405427
 40
0.8075382239
 40
0.8619219077
 40
0.911318122
 40
0.9344614586
 40
0.9567923099
 40
0.9785471541
 40
1.0
 40
1.0
 40
1.0
 40
1.0
 10
270.4601832669
 20
217.7986697722
 30
0.0
 10
270.3985151937
 20
217.924336165
 30
0.0
 10
270.2416338506
 20
218.1748862926
 30
0.0
 10
269.993275954
 20
218.4582738177
 30
0.0
 10
269.7589222812
 20
218.6768709894
 30
0.0
 10
269.4929734699
 20
218.895237193
 30
0.0
 10
269.1218430194
 20
219.147793416
 30
0.0
 10
268.6328476802
 20
219.4102920969
 30
0.0
 10
268.1063051616
 20
219.6294653456
 30
0.0
 10
267.5565251855
 20
219.7997158511
 30
0.0
 10
266.9981325755
 20
219.916190307
 30
0.0
 10
266.4461058604
 20
219.9760388906
 30
0.0
 10
265.9152114
 20
219.9774840379
 30
0.0
 10
265.4940626094
 20
219.9290466121
 30
0.0
 10
265.1809664556
 20
219.8595960348
 30
0.0
 10
264.8991405653
 20
219.7748023339
 30
0.0
 10
264.583233425
 20
219.6371576657
 30
0.0
 10
264.3119703241
 20
219.4490739848
 30
0.0
 10
264.1392418102
 20
219.2750894991
 30
0.0
 10
264.0335465022
 20
219.1370734928
 30
0.0
 10
263.9498066414
 20
218.9897155261
 30
0.0
 10
263.9090636584
 20
218.8855481833
 30
0.0
 10
263.8927063019
 20
218.8327164942
 30
0.0
  0
SPLINE
  5
31B
100
AcDbEntity
  8
0
100
AcDbSpline
 62
7
  6
CONTINUOUS
 70
0
 71
3
 72
11
 73
7
 74
0
 42
0.0000001
 43
0.0000001
 44
0.0000000001
 40
0.0
 40
0.0
 40
0.0
 40
0.0
 40
0.233663881
 40
0.4745869636
 40
0.7288023041
 40
1.0
 40
1.0
 40
1.0
 40
1.0
 10
318.6850128918
 20
205.4513232229
 30
0.0
 10
318.7095496565
 20
205.5305731143
 30
0.0
 10
318.7418528314
 20
205.69752308
 30
0.0
 10
318.7362005804
 20
205.95795099
 30
0.0
 10
318.6776755139
 20
206.2251665317
 30
0.0
 10
318.6073823491
 20
206.3989294585
 30
0.0
 10
318.5649635438
 20
206.4853699449
 30
0.0
  0
SPLINE
  5
31C
100
AcDbEntity
  8
0
100
AcDbSpline
 62
7
  6
CONTINUOUS
 70
0
 71
3
 72
11
 73
7
 74
0
 42
0.0000001
 43
0.0000001
 44
0.0000000001
 40
0.0
 40
0.0
 40
0.0
 40
0.0
 40
0.233663881
 40
0.4745869636
 40
0.7288023041
 40
1.0
 40
1.0
 40
1.0
 40
1.0
 10
270.5802326149
 20
216.7646230503
 30
0.0
 10
270.6047693796
 20
216.8438729417
 30
0.0
 10
270.6370725545
 20
217.0108229073
 30
0.0
 10
270.6314203035
 20
217.2712508174
 30
0.0
 10
270.572895237
 20
217.5384663591
 30
0.0
 10
270.5026020721
 20
217.7122292859
 30
0.0
 10
270.4601832669
 20
217.7986697722
 30
0.0
  0
SPLINE
  5
31D
100
AcDbEntity
  8
0
100
AcDbSpline
 62
7
  6
CONTINUOUS
 70
0
 71
3
 72
14
 73
10
 74
0
 42
0.0000001
 43
0.0000001
 44
0.0000000001
 40
0.0
 40
0.0
 40
0.0
 40
0.0
 40
0.2719755142
 40
0.4008272381
 40
0.5254751959
 40
0.6467015357
 40
0.765479243
 40
0.8828722716
 40
1.0
 40
1.0
 40
1.0
 40
1.0
 10
326.9110355768
 20
210.8605382925
 30
0.0
 10
327.0042212293
 20
210.6706019423
 30
0.0
 10
327.1200428546
 20
210.3787878162
 30
0.0
 10
327.2148372912
 20
209.9806356025
 30
0.0
 10
327.2531097122
 20
209.6910918309
 30
0.0
 10
327.2594755953
 20
209.4069276159
 30
0.0
 10
327.2340012877
 20
209.1294479106
 30
0.0
 10
327.1766883084
 20
208.8600305286
 30
0.0
 10
327.1174773262
 20
208.6869361616
 30
0.0
 10
327.0829434134
 20
208.6026232504
 30
0.0
  0
SPLINE
  5
31E
100
AcDbEntity
  8
0
100
AcDbSpline
 62
7
  6
CONTINUOUS
 70
0
 71
3
 72
13
 73
9
 74
0
 42
0.0000001
 43
0.0000001
 44
0.0000000001
 40
0.0
 40
0.0
 40
0.0
 40
0.0
 40
0.1110597129
 40
0.2242727936
 40
0.3408009914
 40
0.4616184566
 40
0.7187797893
 40
1.0
 40
1.0
 40
1.0
 40
1.0
 10
327.0829434134
 20
208.6026232504
 30
0.0
 10
327.0438204263
 20
208.5071063318
 30
0.0
 10
326.9517535995
 20
208.3193018399
 30
0.0
 10
326.7760592481
 20
208.0547762149
 30
0.0
 10
326.5629623654
 20
207.8072534339
 30
0.0
 10
326.224251923
 20
207.4952916587
 30
0.0
 10
325.7081983796
 20
207.1570833784
 30
0.0
 10
325.2454013433
 20
206.9605947737
 30
0.0
 10
324.9981606814
 20
206.8758365986
 30
0.0
  0
SPLINE
  5
31F
100
AcDbEntity
  8
0
100
AcDbSpline
 62
7
  6
CONTINUOUS
 70
0
 71
3
 72
19
 73
15
 74
0
 42
0.0000001
 43
0.0000001
 44
0.0000000001
 40
0.0
 40
0.0
 40
0.0
 40
0.0
 40
0.0639515215
 40
0.1296856798
 40
0.2645383798
 40
0.4011929817
 40
0.5361795587
 40
0.6660709809
 40
0.7281852744
 40
0.7879595909
 40
0.8451616387
 40
0.8996372083
 40
0.9512740174
 40
1.0
 40
1.0
 40
1.0
 40
1.0
 10
311.162587382
 20
229.8320421745
 30
0.0
 10
311.3763570931
 20
229.8320307657
 30
0.0
 10
311.8099727914
 20
229.8174136866
 30
0.0
 10
312.6906432227
 20
229.733062238
 30
0.0
 10
313.801374005
 20
229.5249617203
 30
0.0
 10
315.1031795784
 20
229.1261506186
 30
0.0
 10
316.3371720507
 20
228.5910511308
 30
0.0
 10
317.2846457004
 20
228.0398153044
 30
0.0
 10
317.9669261485
 20
227.546070154
 30
0.0
 10
318.4263882087
 20
227.1614552584
 30
0.0
 10
318.8368896985
 20
226.7606622174
 30
0.0
 10
319.1945219134
 20
226.3472425536
 30
0.0
 10
319.4956674079
 20
225.9253558934
 30
0.0
 10
319.6617780012
 20
225.6329486343
 30
0.0
 10
319.7335442209
 20
225.4867362733
 30
0.0
  0
SPLINE
  5
320
100
AcDbEntity
  8
0
100
AcDbSpline
 62
7
  6
CONTINUOUS
 70
0
 71
3
 72
11
 73
7
 74
0
 42
0.0000001
 43
0.0000001
 44
0.0000000001
 40
0.0
 40
0.0
 40
0.0
 40
0.0
 40
0.270461438
 40
0.524978419
 40
0.7665176758
 40
1.0
 40
1.0
 40
1.0
 40
1.0
 10
259.3945016713
 20
225.4867362733
 30
0.0
 10
259.3164625038
 20
225.645797228
 30
0.0
 10
259.185028371
 20
225.9650733966
 30
0.0
 10
259.0664457804
 20
226.4552762041
 30
0.0
 10
259.0362746517
 20
226.9347899469
 30
0.0
 10
259.0763097257
 20
227.2457495342
 30
0.0
 10
259.11096961
 20
227.3947200347
 30
0.0
  0
SPLINE
  5
321
100
AcDbEntity
  8
0
100
AcDbSpline
 62
7
  6
CONTINUOUS
 70
0
 71
3
 72
18
 73
14
 74
0
 42
0.0000001
 43
0.0000001
 44
0.0000000001
 40
0.0
 40
0.0
 40
0.0
 40
0.0
 40
0.0499847457
 40
0.1001821422
 40
0.1510741012
 40
0.2031173991
 40
0.3120627805
 40
0.4296401996
 40
0.5571849809
 40
0.6248919439
 40
0.6951882507
 40
0.8432265705
 40
1.0
 40
1.0
 40
1.0
 40
1.0
 10
259.11096961
 20
227.3947200347
 30
0.0
 10
259.1320597064
 20
227.4853666791
 30
0.0
 10
259.1854809864
 20
227.6646585117
 30
0.0
 10
259.2982741306
 20
227.9230509167
 30
0.0
 10
259.4430846389
 20
228.1694589265
 30
0.0
 10
259.6814672753
 20
228.4847467643
 30
0.0
 10
260.0616976576
 20
228.843508419
 30
0.0
 10
260.6211680529
 20
229.1982146975
 30
0.0
 10
261.1587958433
 20
229.4282025518
 30
0.0
 10
261.6309244732
 20
229.5758607419
 30
0.0
 10
262.1486554208
 20
229.7022241987
 30
0.0
 10
262.8408815658
 20
229.8059853942
 30
0.0
 10
263.4088280503
 20
229.832027499
 30
0.0
 10
263.7007281154
 20
229.8320421745
 30
0.0
  0
SPLINE
  5
322
100
AcDbEntity
  8
0
100
AcDbSpline
 62
7
  6
CONTINUOUS
 70
0
 71
3
 72
27
 73
23
 74
0
 42
0.0000001
 43
0.0000001
 44
0.0000000001
 40
0.0
 40
0.0
 40
0.0
 40
0.0
 40
0.0542982022
 40
0.113942239
 40
0.1456627141
 40
0.1785379888
 40
0.2473416358
 40
0.3193944642
 40
0.3934675492
 40
0.4682292191
 40
0.5423140473
 40
0.6143894122
 40
0.6832411756
 40
0.7478465693
 40
0.7783405427
 40
0.8075382239
 40
0.8619219077
 40
0.911318122
 40
0.9344614586
 40
0.9567923099
 40
0.9785471541
 40
1.0
 40
1.0
 40
1.0
 40
1.0
 10
312.1175359268
 20
206.4853699449
 30
0.0
 10
312.179204
 20
206.3597035521
 30
0.0
 10
312.3360853431
 20
206.1091534245
 30
0.0
 10
312.5844432397
 20
205.8257658994
 30
0.0
 10
312.8187969125
 20
205.6071687277
 30
0.0
 10
313.0847457238
 20
205.3888025241
 30
0.0
 10
313.4558761744
 20
205.1362463011
 30
0.0
 10
313.9448715135
 20
204.8737476202
 30
0.0
 10
314.4714140321
 20
204.6545743716
 30
0.0
 10
315.0211940082
 20
204.484323866
 30
0.0
 10
315.5795866182
 20
204.3678494101
 30
0.0
 10
316.1316133333
 20
204.3080008265
 30
0.0
 10
316.6625077937
 20
204.3065556792
 30
0.0
 10
317.0836565844
 20
204.354993105
 30
0.0
 10
317.3967527381
 20
204.4244436823
 30
0.0
 10
317.6785786284
 20
204.5092373832
 30
0.0
 10
317.9944857687
 20
204.6468820514
 30
0.0
 10
318.2657488697
 20
204.8349657324
 30
0.0
 10
318.4384773835
 20
205.008950218
 30
0.0
 10
318.5441726915
 20
205.1469662243
 30
0.0
 10
318.6279125523
 20
205.294324191
 30
0.0
 10
318.6686555353
 20
205.3984915338
 30
0.0
 10
318.6850128918
 20
205.4513232229
 30
0.0
  0
SPLINE
  5
323
100
AcDbEntity
  8
0
100
AcDbSpline
 62
7
  6
CONTINUOUS
 70
0
 71
3
 72
15
 73
11
 74
0
 42
0.0000001
 43
0.0000001
 44
0.0000000001
 40
0.0
 40
0.0
 40
0.0
 40
0.0
 40
0.1002578824
 40
0.211879425
 40
0.3337564555
 40
0.463705722
 40
0.5987272021
 40
0.7354018571
 40
0.8703040955
 40
1.0
 40
1.0
 40
1.0
 40
1.0
 10
268.691330148
 20
204.9501018712
 30
0.0
 10
268.750374274
 20
204.8298092653
 30
0.0
 10
268.9065327042
 20
204.5906009213
 30
0.0
 10
269.2159452212
 20
204.2667358637
 30
0.0
 10
269.6018746322
 20
203.9690400188
 30
0.0
 10
270.0498959421
 20
203.7083641839
 30
0.0
 10
270.5434843045
 20
203.4943344251
 30
0.0
 10
271.0641890966
 20
203.3348035451
 30
0.0
 10
271.5924254364
 20
203.2358871108
 30
0.0
 10
271.94636489
 20
203.2119874265
 30
0.0
 10
272.1197128835
 20
203.2119795107
 30
0.0
  0
SPLINE
  5
324
100
AcDbEntity
  8
0
100
AcDbSpline
 62
7
  6
CONTINUOUS
 70
0
 71
3
 72
17
 73
13
 74
0
 42
0.0000001
 43
0.0000001
 44
0.0000000001
 40
0.0
 40
0.0
 40
0.0
 40
0.0
 40
0.0505141898
 40
0.1011096907
 40
0.1522739503
 40
0.2044744582
 40
0.3134512229
 40
0.4308113142
 40
0.5580277
 40
0.6956231283
 40
0.8433870461
 40
1.0
 40
1.0
 40
1.0
 40
1.0
 10
260.1342495917
 20
225.9747114525
 30
0.0
 10
260.1505666356
 20
226.0483968685
 30
0.0
 10
260.1922318691
 20
226.1940613684
 30
0.0
 10
260.2811916079
 20
226.4040268569
 30
0.0
 10
260.3960154517
 20
226.6039932609
 30
0.0
 10
260.5854969334
 20
226.8592189171
 30
0.0
 10
260.8889050805
 20
227.1489946044
 30
0.0
 10
261.3368434286
 20
227.4340525168
 30
0.0
 10
261.8643899706
 20
227.6582087366
 30
0.0
 10
262.4615518916
 20
227.8179042217
 30
0.0
 10
263.1167189614
 20
227.9104394232
 30
0.0
 10
263.5720734942
 20
227.9264128666
 30
0.0
 10
263.8060446437
 20
227.9237168717
 30
0.0
  0
SPLINE
  5
325
100
AcDbEntity
  8
0
100
AcDbSpline
 62
7
  6
CONTINUOUS
 70
0
 71
3
 72
11
 73
7
 74
0
 42
0.0000001
 43
0.0000001
 44
0.0000000001
 40
0.0
 40
0.0
 40
0.0
 40
0.0
 40
0.2339984207
 40
0.478961501
 40
0.7347420505
 40
1.0
 40
1.0
 40
1.0
 40
1.0
 10
260.0071838076
 20
225.3319093083
 30
0.0
 10
259.9644719768
 20
225.357619335
 30
0.0
 10
259.8726279132
 20
225.4031874415
 30
0.0
 10
259.7231562498
 20
225.4513117352
 30
0.0
 10
259.5621427989
 20
225.4803948496
 30
0.0
 10
259.4510142873
 20
225.4867362731
 30
0.0
 10
259.3945016713
 20
225.4867362733
 30
0.0
  0
SPLINE
  5
326
100
AcDbEntity
  8
0
100
AcDbSpline
 62
7
  6
CONTINUOUS
 70
0
 71
3
 72
13
 73
9
 74
0
 42
0.0000001
 43
0.0000001
 44
0.0000000001
 40
0.0
 40
0.0
 40
0.0
 40
0.0
 40
0.1163654274
 40
0.2333918205
 40
0.3521206509
 40
0.4735336177
 40
0.7274471378
 40
1.0
 40
1.0
 40
1.0
 40
1.0
 10
324.2865332163
 20
205.1887446761
 30
0.0
 10
324.3141175979
 20
205.2569160116
 30
0.0
 10
324.3615134318
 20
205.3970131952
 30
0.0
 10
324.4078257167
 20
205.6151585851
 30
0.0
 10
324.429218204
 20
205.8403578481
 30
0.0
 10
324.4244131423
 20
206.1531117895
 30
0.0
 10
324.3523283911
 20
206.5590820052
 30
0.0
 10
324.2350877111
 20
206.8723309246
 30
0.0
 10
324.1626956979
 20
207.028628038
 30
0.0
  0
SPLINE
  5
327
100
AcDbEntity
  8
0
100
AcDbSpline
 62
7
  6
CONTINUOUS
 70
0
 71
3
 72
21
 73
17
 74
0
 42
0.0000001
 43
0.0000001
 44
0.0000000001
 40
0.0
 40
0.0
 40
0.0
 40
0.0
 40
0.1613422623
 40
0.3089885827
 40
0.3772070866
 40
0.441661925
 40
0.502530504
 40
0.5601673742
 40
0.6151499694
 40
0.6682376445
 40
0.7203556209
 40
0.7725082596
 40
0.8257218791
 40
0.8809463511
 40
0.9388990723
 40
1.0
 40
1.0
 40
1.0
 40
1.0
 10
263.3552632994
 20
221.0720602064
 30
0.0
 10
263.1928291245
 20
221.0720521352
 30
0.0
 10
262.8812706284
 20
221.0524052611
 30
0.0
 10
262.50828024
 20
220.9710063211
 30
0.0
 10
262.2436049003
 20
220.8718009194
 30
0.0
 10
262.0689901817
 20
220.7844239455
 30
0.0
 10
261.9146840049
 20
220.6829544116
 30
0.0
 10
261.7823433553
 20
220.5680980041
 30
0.0
 10
261.673271836
 20
220.4409903693
 30
0.0
 10
261.5888551926
 20
220.3027077602
 30
0.0
 10
261.5300054862
 20
220.1547795103
 30
0.0
 10
261.4974736523
 20
219.9988044088
 30
0.0
 10
261.4915397573
 20
219.8365025346
 30
0.0
 10
261.5122173114
 20
219.6696016453
 30
0.0
 10
261.5589759207
 20
219.4999356147
 30
0.0
 10
261.6056774591
 20
219.3891635009
 30
0.0
 10
261.6327727218
 20
219.3339378459
 30
0.0
  0
SPLINE
  5
328
100
AcDbEntity
  8
0
100
AcDbSpline
 62
7
  6
CONTINUOUS
 70
0
 71
3
 72
15
 73
11
 74
0
 42
0.0000001
 43
0.0000001
 44
0.0000000001
 40
0.0
 40
0.0
 40
0.0
 40
0.0
 40
0.1002578824
 40
0.211879425
 40
0.3337564555
 40
0.463705722
 40
0.5987272021
 40
0.7354018571
 40
0.8703040955
 40
1.0
 40
1.0
 40
1.0
 40
1.0
 10
313.8863890458
 20
219.3339378459
 30
0.0
 10
313.8273449197
 20
219.4542304518
 30
0.0
 10
313.6711864896
 20
219.6934387958
 30
0.0
 10
313.3617739725
 20
220.0173038534
 30
0.0
 10
312.9758445615
 20
220.3149996983
 30
0.0
 10
312.5278232516
 20
220.5756755332
 30
0.0
 10
312.0342348892
 20
220.789705292
 30
0.0
 10
311.5135300971
 20
220.949236172
 30
0.0
 10
310.9852937573
 20
221.0481526063
 30
0.0
 10
310.6313543038
 20
221.0720522906
 30
0.0
 10
310.4580063102
 20
221.0720602064
 30
0.0
  0
SPLINE
  5
329
100
AcDbEntity
  8
0
100
AcDbSpline
 62
7
  6
CONTINUOUS
 70
0
 71
3
 72
19
 73
15
 74
0
 42
0.0000001
 43
0.0000001
 44
0.0000000001
 40
0.0
 40
0.0
 40
0.0
 40
0.0
 40
0.0479843887
 40
0.0990991677
 40
0.1532483132
 40
0.21029354
 40
0.2700531209
 40
0.3322657703
 40
0.4625741897
 40
0.5980942516
 40
0.7352287863
 40
0.870380743
 40
0.9361456868
 40
1.0
 40
1.0
 40
1.0
 40
1.0
 10
317.1041382718
 20
221.4124640128
 30
0.0
 10
317.0451693148
 20
221.5258321885
 30
0.0
 10
316.9092630914
 20
221.7527858679
 30
0.0
 10
316.6649667519
 20
222.0804207891
 30
0.0
 10
316.3759740837
 20
222.4025847596
 30
0.0
 10
316.0452222488
 20
222.7160723279
 30
0.0
 10
315.6758402634
 20
223.0181026368
 30
0.0
 10
315.1280075529
 20
223.4077425239
 30
0.0
 10
314.3695688454
 20
223.8457985552
 30
0.0
 10
313.3845475388
 20
224.2766983928
 30
0.0
 10
312.3472967538
 20
224.6050915827
 30
0.0
 10
311.4630824631
 20
224.7846756044
 30
0.0
 10
310.7622965693
 20
224.8654822953
 30
0.0
 10
310.4173773164
 20
224.8847340194
 30
0.0
 10
310.2473728006
 20
224.8887087337
 30
0.0
  0
SPLINE
  5
32A
100
AcDbEntity
  8
0
100
AcDbSpline
 62
7
  6
CONTINUOUS
 70
0
 71
3
 72
19
 73
15
 74
0
 42
0.0000001
 43
0.0000001
 44
0.0000000001
 40
0.0
 40
0.0
 40
0.0
 40
0.0
 40
0.0640007844
 40
0.1297267662
 40
0.2644293849
 40
0.4008313618
 40
0.5355479488
 40
0.6652393403
 40
0.7273109441
 40
0.7870965026
 40
0.8443777787
 40
0.8990153231
 40
0.9509100805
 40
1.0
 40
1.0
 40
1.0
 40
1.0
 10
311.2679037576
 20
227.9237167831
 30
0.0
 10
311.4394052334
 20
227.9256805221
 30
0.0
 10
311.7872668598
 20
227.9177501852
 30
0.0
 10
312.4936481944
 20
227.8569448887
 30
0.0
 10
313.3843892321
 20
227.6970456976
 30
0.0
 10
314.4279250931
 20
227.382685644
 30
0.0
 10
315.4162572316
 20
226.9560220485
 30
0.0
 10
316.1740718017
 20
226.5135077547
 30
0.0
 10
316.7189517938
 20
226.1157848722
 30
0.0
 10
317.0856409225
 20
225.8052288408
 30
0.0
 10
317.4128620151
 20
225.4810043038
 30
0.0
 10
317.6975004656
 20
225.1459922324
 30
0.0
 10
317.9366809384
 20
224.803579111
 30
0.0
 10
318.0680408496
 20
224.5662139801
 30
0.0
 10
318.1246692585
 20
224.4474721507
 30
0.0
  0
SPLINE
  5
32B
100
AcDbEntity
  8
0
100
AcDbSpline
 62
7
  6
CONTINUOUS
 70
0
 71
3
 72
14
 73
10
 74
0
 42
0.0000001
 43
0.0000001
 44
0.0000000001
 40
0.0
 40
0.0
 40
0.0
 40
0.0
 40
0.2716896233
 40
0.4004031567
 40
0.5249537334
 40
0.6461486831
 40
0.7649869232
 40
0.8825569497
 40
1.0
 40
1.0
 40
1.0
 40
1.0
 10
325.3021605404
 20
209.8212741715
 30
0.0
 10
325.377154412
 20
209.6727754613
 30
0.0
 10
325.4707492743
 20
209.4442989249
 30
0.0
 10
325.5483354835
 20
209.1319305758
 30
0.0
 10
325.5804637543
 20
208.9044433419
 30
0.0
 10
325.5872648282
 20
208.6808412477
 30
0.0
 10
325.5687798357
 20
208.4621477122
 30
0.0
 10
325.5250013493
 20
208.2494408335
 30
0.0
 10
325.4791414862
 20
208.1126123085
 30
0.0
 10
325.4522963774
 20
208.045898181
 30
0.0
  0
SPLINE
  5
32C
100
AcDbEntity
  8
0
100
AcDbSpline
 62
7
  6
CONTINUOUS
 70
0
 71
3
 72
17
 73
13
 74
0
 42
0.0000001
 43
0.0000001
 44
0.0000000001
 40
0.0
 40
0.0
 40
0.0
 40
0.0
 40
0.1575749421
 40
0.3064328447
 40
0.4451118611
 40
0.5731838381
 40
0.6909131645
 40
0.799484295
 40
0.8511116581
 40
0.9014279748
 40
0.9508931027
 40
1.0
 40
1.0
 40
1.0
 40
1.0
 10
263.1446297899
 20
224.8887087337
 30
0.0
 10
262.9082623716
 20
224.8832563482
 30
0.0
 10
262.4487199114
 20
224.852073165
 30
0.0
 10
261.7890843033
 20
224.7399583084
 30
0.0
 10
261.1888681858
 20
224.5650316136
 30
0.0
 10
260.659635015
 20
224.3303938427
 30
0.0
 10
260.211221634
 20
224.0400330936
 30
0.0
 10
259.9075230772
 20
223.749560572
 30
0.0
 10
259.7182647258
 20
223.4959142291
 30
0.0
 10
259.6042022943
 20
223.2988045755
 30
0.0
 10
259.5162526537
 20
223.0928724897
 30
0.0
 10
259.4753214224
 20
222.9502764729
 30
0.0
 10
259.4594518308
 20
222.8783242689
 30
0.0
  0
SPLINE
  5
32D
100
AcDbEntity
  8
0
100
AcDbSpline
 62
7
  6
CONTINUOUS
 70
0
 71
3
 72
15
 73
11
 74
0
 42
0.0000001
 43
0.0000001
 44
0.0000000001
 40
0.0
 40
0.0
 40
0.0
 40
0.0
 40
0.1126647678
 40
0.2323669431
 40
0.3575654725
 40
0.486590304
 40
0.6175192152
 40
0.7482473961
 40
0.8765882862
 40
1.0
 40
1.0
 40
1.0
 40
1.0
 10
325.3021609638
 20
209.8212752091
 30
0.0
 10
325.3285688556
 20
209.8925235267
 30
0.0
 10
325.3982276636
 20
210.0340862327
 30
0.0
 10
325.5404295782
 20
210.2300808117
 30
0.0
 10
325.7194470248
 20
210.4090883089
 30
0.0
 10
325.9281343305
 20
210.5651753836
 30
0.0
 10
326.1595897039
 20
210.6927818196
 30
0.0
 10
326.4057317375
 20
210.7878894245
 30
0.0
 10
326.657813461
 20
210.846346766
 30
0.0
 10
326.8278026155
 20
210.8605382928
 30
0.0
 10
326.9110355768
 20
210.8605382925
 30
0.0
  0
SPLINE
  5
32E
100
AcDbEntity
  8
0
100
AcDbSpline
 62
7
  6
CONTINUOUS
 70
0
 71
3
 72
21
 73
17
 74
0
 42
0.0000001
 43
0.0000001
 44
0.0000000001
 40
0.0
 40
0.0
 40
0.0
 40
0.0
 40
0.1613422623
 40
0.3089885827
 40
0.3772070866
 40
0.441661925
 40
0.502530504
 40
0.5601673742
 40
0.6151499694
 40
0.6682376445
 40
0.7203556209
 40
0.7725082596
 40
0.8257218791
 40
0.8809463511
 40
0.9388990723
 40
1.0
 40
1.0
 40
1.0
 40
1.0
 10
319.2224558943
 20
203.2119795107
 30
0.0
 10
319.3848900692
 20
203.2119875819
 30
0.0
 10
319.6964485653
 20
203.231634456
 30
0.0
 10
320.0694389538
 20
203.313033396
 30
0.0
 10
320.3341142934
 20
203.4122387978
 30
0.0
 10
320.508729012
 20
203.4996157716
 30
0.0
 10
320.6630351888
 20
203.6010853055
 30
0.0
 10
320.7953758384
 20
203.715941713
 30
0.0
 10
320.9044473577
 20
203.8430493478
 30
0.0
 10
320.9888640011
 20
203.9813319569
 30
0.0
 10
321.0477137075
 20
204.1292602068
 30
0.0
 10
321.0802455414
 20
204.2852353083
 30
0.0
 10
321.0861794364
 20
204.4475371825
 30
0.0
 10
321.0655018823
 20
204.6144380718
 30
0.0
 10
321.018743273
 20
204.7841041025
 30
0.0
 10
320.9720417347
 20
204.8948762162
 30
0.0
 10
320.9449464719
 20
204.9501018712
 30
0.0
  0
SPLINE
  5
32F
100
AcDbEntity
  8
0
100
AcDbSpline
 62
7
  6
CONTINUOUS
 70
0
 71
3
 72
27
 73
23
 74
0
 42
0.0000001
 43
0.0000001
 44
0.0000000001
 40
0.0
 40
0.0
 40
0.0
 40
0.0
 40
0.0542982022
 40
0.113942239
 40
0.1456627141
 40
0.1785379888
 40
0.2473416358
 40
0.3193944642
 40
0.3934675492
 40
0.4682292191
 40
0.5423140473
 40
0.6143894122
 40
0.6832411756
 40
0.7478465693
 40
0.7783405427
 40
0.8075382239
 40
0.8619219077
 40
0.911318122
 40
0.9344614586
 40
0.9567923099
 40
0.9785471541
 40
1.0
 40
1.0
 40
1.0
 40
1.0
 10
264.0127556499
 20
217.7986697722
 30
0.0
 10
264.0744237231
 20
217.6730033795
 30
0.0
 10
264.2313050662
 20
217.4224532518
 30
0.0
 10
264.4796629628
 20
217.1390657267
 30
0.0
 10
264.7140166356
 20
216.9204685551
 30
0.0
 10
264.9799654469
 20
216.7021023515
 30
0.0
 10
265.3510958975
 20
216.4495461284
 30
0.0
 10
265.8400912366
 20
216.1870474475
 30
0.0
 10
266.3666337552
 20
215.9678741989
 30
0.0
 10
266.9164137313
 20
215.7976236934
 30
0.0
 10
267.4748063413
 20
215.6811492374
 30
0.0
 10
268.0268330564
 20
215.6213006538
 30
0.0
 10
268.5577275168
 20
215.6198555065
 30
0.0
 10
268.9788763075
 20
215.6682929323
 30
0.0
 10
269.2919724612
 20
215.7377435097
 30
0.0
 10
269.5737983515
 20
215.8225372105
 30
0.0
 10
269.8897054918
 20
215.9601818787
 30
0.0
 10
270.1609685928
 20
216.1482655597
 30
0.0
 10
270.3336971066
 20
216.3222500453
 30
0.0
 10
270.4393924146
 20
216.4602660517
 30
0.0
 10
270.5231322754
 20
216.6076240184
 30
0.0
 10
270.5638752584
 20
216.7117913612
 30
0.0
 10
270.5802326149
 20
216.7646230503
 30
0.0
  0
SPLINE
  5
330
100
AcDbEntity
  8
0
100
AcDbSpline
 62
7
  6
CONTINUOUS
 70
0
 71
3
 72
15
 73
11
 74
0
 42
0.0000001
 43
0.0000001
 44
0.0000000001
 40
0.0
 40
0.0
 40
0.0
 40
0.0
 40
0.1209375271
 40
0.2512493838
 40
0.3865923664
 40
0.5228727149
 40
0.6560799121
 40
0.7823727052
 40
0.898113545
 40
1.0
 40
1.0
 40
1.0
 40
1.0
 10
263.8060448702
 20
227.9237179108
 30
0.0
 10
263.8269735178
 20
227.999247829
 30
0.0
 10
263.8619816728
 20
228.15855715
 30
0.0
 10
263.8951803089
 20
228.407128843
 30
0.0
 10
263.909563005
 20
228.6674639454
 30
0.0
 10
263.9049905648
 20
228.9300152928
 30
0.0
 10
263.8814037135
 20
229.185665062
 30
0.0
 10
263.8399008391
 20
229.425598706
 30
0.0
 10
263.7816029085
 20
229.6410477079
 30
0.0
 10
263.7298168985
 20
229.7727654329
 30
0.0
 10
263.7007281154
 20
229.8320421745
 30
0.0
  0
SPLINE
  5
331
100
AcDbEntity
  8
0
100
AcDbSpline
 62
7
  6
CONTINUOUS
 70
0
 71
3
 72
15
 73
11
 74
0
 42
0.0000001
 43
0.0000001
 44
0.0000000001
 40
0.0
 40
0.0
 40
0.0
 40
0.0
 40
0.1209375152
 40
0.2512493459
 40
0.3865923067
 40
0.5228726457
 40
0.6560798488
 40
0.7823726619
 40
0.8981135301
 40
1.0
 40
1.0
 40
1.0
 40
1.0
 10
311.2679041367
 20
227.9237179108
 30
0.0
 10
311.2888327808
 20
227.9992478218
 30
0.0
 10
311.3238409354
 20
228.1585571174
 30
0.0
 10
311.3570395625
 20
228.4071287724
 30
0.0
 10
311.3714222623
 20
228.6674638368
 30
0.0
 10
311.3668498343
 20
228.9300151676
 30
0.0
 10
311.3432629963
 20
229.1856649484
 30
0.0
 10
311.3017601215
 20
229.4255986284
 30
0.0
 10
311.2434621772
 20
229.6410476682
 30
0.0
 10
311.191676169
 20
229.7727654241
 30
0.0
 10
311.162587382
 20
229.8320421745
 30
0.0
  0
SPLINE
  5
332
100
AcDbEntity
  8
0
100
AcDbSpline
 62
7
  6
CONTINUOUS
 70
0
 71
3
 72
15
 73
11
 74
0
 42
0.0000001
 43
0.0000001
 44
0.0000000001
 40
0.0
 40
0.0
 40
0.0
 40
0.0
 40
0.1126647772
 40
0.2323669763
 40
0.3575655267
 40
0.4865903697
 40
0.6175192788
 40
0.7482474412
 40
0.8765883004
 40
1.0
 40
1.0
 40
1.0
 40
1.0
 10
318.1246696079
 20
224.4474731899
 30
0.0
 10
318.1510775027
 20
224.518721513
 30
0.0
 10
318.220736335
 20
224.660284232
 30
0.0
 10
318.3629382682
 20
224.8562788413
 30
0.0
 10
318.5419557487
 20
225.0352863594
 30
0.0
 10
318.7506430818
 20
225.1913734318
 30
0.0
 10
318.9820984611
 20
225.3189798433
 30
0.0
 10
319.2282404633
 20
225.4140874286
 30
0.0
 10
319.4803221442
 20
225.4725447662
 30
0.0
 10
319.6503112694
 20
225.4867362733
 30
0.0
 10
319.7335442209
 20
225.4867362733
 30
0.0
  0
SPLINE
  5
333
100
AcDbEntity
  8
0
100
AcDbSpline
 62
7
  6
CONTINUOUS
 70
0
 71
3
 72
15
 73
11
 74
0
 42
0.0000001
 43
0.0000001
 44
0.0000000001
 40
0.0
 40
0.0
 40
0.0
 40
0.0
 40
0.1411415245
 40
0.2776097463
 40
0.4087923776
 40
0.5346679978
 40
0.65576548
 40
0.7729175616
 40
0.8872282007
 40
1.0
 40
1.0
 40
1.0
 40
1.0
 10
268.691330148
 20
204.9501018712
 30
0.0
 10
268.5886974761
 20
204.9501018521
 30
0.0
 10
268.3866489933
 20
204.9604976773
 30
0.0
 10
268.0926222428
 20
205.0082182765
 30
0.0
 10
267.8169004264
 20
205.0875552072
 30
0.0
 10
267.5639898518
 20
205.1975914631
 30
0.0
 10
267.3374941136
 20
205.3365376233
 30
0.0
 10
267.1410077924
 20
205.5028534585
 30
0.0
 10
266.9773638351
 20
205.6936655137
 30
0.0
 10
266.891758572
 20
205.8359572095
 30
0.0
 10
266.8556173674
 20
205.9095666849
 30
0.0
  0
SPLINE
  5
334
100
AcDbEntity
  8
0
100
AcDbSpline
 62
7
  6
CONTINUOUS
 70
0
 71
3
 72
15
 73
11
 74
0
 42
0.0000001
 43
0.0000001
 44
0.0000000001
 40
0.0
 40
0.0
 40
0.0
 40
0.0
 40
0.1629969582
 40
0.3141367123
 40
0.4532795428
 40
0.5806040885
 40
0.696937554
 40
0.8039521283
 40
0.9039723603
 40
1.0
 40
1.0
 40
1.0
 40
1.0
 10
272.1197128835
 20
203.2119795107
 30
0.0
 10
272.1422581892
 20
203.1660369817
 30
0.0
 10
272.1886026308
 20
203.07886218
 30
0.0
 10
272.2649426321
 20
202.9585680076
 30
0.0
 10
272.3449676629
 20
202.8544414768
 30
0.0
 10
272.4282098022
 20
202.7673587612
 30
0.0
 10
272.5142657362
 20
202.6980963671
 30
0.0
 10
272.6026231798
 20
202.6471213339
 30
0.0
 10
272.692773777
 20
202.6149585737
 30
0.0
 10
272.7542790761
 20
202.6064428147
 30
0.0
 10
272.78441551
 20
202.6055436866
 30
0.0
  0
SPLINE
  5
335
100
AcDbEntity
  8
0
100
AcDbSpline
 62
7
  6
CONTINUOUS
 70
0
 71
3
 72
15
 73
11
 74
0
 42
0.0000001
 43
0.0000001
 44
0.0000000001
 40
0.0
 40
0.0
 40
0.0
 40
0.0
 40
0.1635826075
 40
0.3150397126
 40
0.4542333997
 40
0.5813704877
 40
0.6973713617
 40
0.8040323129
 40
0.9038415139
 40
1.0
 40
1.0
 40
1.0
 40
1.0
 10
319.2224558943
 20
203.2119795107
 30
0.0
 10
319.2453904421
 20
203.165243828
 30
0.0
 10
319.2925517667
 20
203.076650045
 30
0.0
 10
319.3703563781
 20
202.9546189976
 30
0.0
 10
319.4519593702
 20
202.8493636116
 30
0.0
 10
319.536884916
 20
202.7618078819
 30
0.0
 10
319.6246997178
 20
202.6927487429
 30
0.0
 10
319.71487456
 20
202.6426791548
 30
0.0
 10
319.8068707861
 20
202.6121771495
 30
0.0
 10
319.8694363797
 20
202.6053400078
 30
0.0
 10
319.9000385703
 20
202.605354691
 30
0.0
  0
SPLINE
  5
336
100
AcDbEntity
  8
0
100
AcDbSpline
 62
7
  6
CONTINUOUS
 70
0
 71
3
 72
15
 73
11
 74
0
 42
0.0000001
 43
0.0000001
 44
0.0000000001
 40
0.0
 40
0.0
 40
0.0
 40
0.0
 40
0.1235407873
 40
0.2517819934
 40
0.382423964
 40
0.5134064356
 40
0.6424905215
 40
0.7676039379
 40
0.8872201959
 40
1.0
 40
1.0
 40
1.0
 40
1.0
 10
320.9449464719
 20
204.9501018712
 30
0.0
 10
321.1115888967
 20
204.9501018712
 30
0.0
 10
321.4516454978
 20
204.9782450511
 30
0.0
 10
321.9556485083
 20
205.0955419602
 30
0.0
 10
322.4478644156
 20
205.285450241
 30
0.0
 10
322.9106407839
 20
205.5409906314
 30
0.0
 10
323.3282663973
 20
205.8529082558
 30
0.0
 10
323.6859997382
 20
206.2110087217
 30
0.0
 10
323.9707183985
 20
206.6026886647
 30
0.0
 10
324.1098252239
 20
206.8859838535
 30
0.0
 10
324.1626956979
 20
207.028628038
 30
0.0
  0
SPLINE
  5
337
100
AcDbEntity
  8
0
100
AcDbSpline
 62
7
  6
CONTINUOUS
 70
0
 71
3
 72
15
 73
11
 74
0
 42
0.0000001
 43
0.0000001
 44
0.0000000001
 40
0.0
 40
0.0
 40
0.0
 40
0.0
 40
0.1235407791
 40
0.251781977
 40
0.3824239475
 40
0.5134064249
 40
0.6424905159
 40
0.7676039384
 40
0.8872202011
 40
1.0
 40
1.0
 40
1.0
 40
1.0
 10
313.8863890458
 20
219.3339378459
 30
0.0
 10
314.0530314533
 20
219.3339378769
 30
0.0
 10
314.3930880151
 20
219.3620811016
 30
0.0
 10
314.8970909686
 20
219.4793780687
 30
0.0
 10
315.3893068431
 20
219.6692863657
 30
0.0
 10
315.8520832043
 20
219.9248267569
 30
0.0
 10
316.2697088335
 20
220.2367443632
 30
0.0
 10
316.6274422137
 20
220.5948447931
 30
0.0
 10
316.9121609103
 20
220.9865246958
 30
0.0
 10
317.0512677797
 20
221.2698198485
 30
0.0
 10
317.1041382718
 20
221.4124640128
 30
0.0
  0
SPLINE
  5
338
100
AcDbEntity
  8
0
100
AcDbSpline
 62
7
  6
CONTINUOUS
 70
0
 71
3
 72
16
 73
12
 74
0
 42
0.0000001
 43
0.0000001
 44
0.0000000001
 40
0.0
 40
0.0
 40
0.0
 40
0.0
 40
0.0491223222
 40
0.1020295103
 40
0.2176967008
 40
0.3438947683
 40
0.4771604301
 40
0.613489897
 40
0.7487361469
 40
0.8789491867
 40
1.0
 40
1.0
 40
1.0
 40
1.0
 10
310.4580063102
 20
221.0720602064
 30
0.0
 10
310.4299555651
 20
221.1292216478
 30
0.0
 10
310.3764532337
 20
221.2503178195
 30
0.0
 10
310.2794146087
 20
221.5154464244
 30
0.0
 10
310.1797236853
 20
221.8851002719
 30
0.0
 10
310.0965661769
 20
222.3647343504
 30
0.0
 10
310.0495899969
 20
222.8761279293
 30
0.0
 10
310.0402486212
 20
223.4012647874
 30
0.0
 10
310.0691524978
 20
223.9217694655
 30
0.0
 10
310.1353133153
 20
224.4188676834
 30
0.0
 10
310.2054737479
 20
224.7374981979
 30
0.0
 10
310.2473728006
 20
224.8887087337
 30
0.0
  0
SPLINE
  5
339
100
AcDbEntity
  8
0
100
AcDbSpline
 62
7
  6
CONTINUOUS
 70
0
 71
3
 72
16
 73
12
 74
0
 42
0.0000001
 43
0.0000001
 44
0.0000000001
 40
0.0
 40
0.0
 40
0.0
 40
0.0
 40
0.049122326
 40
0.1020295141
 40
0.2176966986
 40
0.3438947597
 40
0.4771604179
 40
0.613489881
 40
0.7487361327
 40
0.8789491799
 40
1.0
 40
1.0
 40
1.0
 40
1.0
 10
263.3552632994
 20
221.0720602064
 30
0.0
 10
263.3272125325
 20
221.1292216448
 30
0.0
 10
263.2737101597
 20
221.2503178081
 30
0.0
 10
263.1766714629
 20
221.515446393
 30
0.0
 10
263.0769804764
 20
221.8851002201
 30
0.0
 10
262.9938229104
 20
222.3647342832
 30
0.0
 10
262.9468467093
 20
222.876127859
 30
0.0
 10
262.9375053483
 20
223.4012647265
 30
0.0
 10
262.9664092762
 20
223.9217694257
 30
0.0
 10
263.0325701835
 20
224.4188676685
 30
0.0
 10
263.102730692
 20
224.7374981963
 30
0.0
 10
263.1446297899
 20
224.8887087337
 30
0.0
  0
SPLINE
  5
33A
100
AcDbEntity
  8
0
100
AcDbSpline
 62
7
  6
CONTINUOUS
 70
0
 71
3
 72
15
 73
11
 74
0
 42
0.0000001
 43
0.0000001
 44
0.0000000001
 40
0.0
 40
0.0
 40
0.0
 40
0.0
 40
0.1411437504
 40
0.2776131168
 40
0.4087956797
 40
0.5346703477
 40
0.6557663985
 40
0.7729171626
 40
0.8872272346
 40
1.0
 40
1.0
 40
1.0
 40
1.0
 10
261.6327727218
 20
219.3339378459
 30
0.0
 10
261.5301213502
 20
219.3339378459
 30
0.0
 10
261.3280367208
 20
219.3443374577
 30
0.0
 10
261.0339598695
 20
219.3920754689
 30
0.0
 10
260.7581963028
 20
219.4714415073
 30
0.0
 10
260.5052544071
 20
219.5815173219
 30
0.0
 10
260.278739682
 20
219.7205128492
 30
0.0
 10
260.0822485118
 20
219.8868862785
 30
0.0
 10
259.9186147555
 20
220.0777620032
 30
0.0
 10
259.8330285766
 20
220.2200982255
 30
0.0
 10
259.7968994591
 20
220.2937296194
 30
0.0
  0
SPLINE
  5
33B
100
AcDbEntity
  8
0
100
AcDbSpline
 62
7
  6
CONTINUOUS
 70
0
 71
3
 72
11
 73
7
 74
0
 42
0.0000001
 43
0.0000001
 44
0.0000000001
 40
0.0
 40
0.0
 40
0.0
 40
0.0
 40
0.233663881
 40
0.4745869636
 40
0.7288023041
 40
1.0
 40
1.0
 40
1.0
 40
1.0
 10
263.8927063019
 20
218.8327164942
 30
0.0
 10
263.8681695372
 20
218.7534666028
 30
0.0
 10
263.8358663624
 20
218.5865166371
 30
0.0
 10
263.8415186133
 20
218.3260887271
 30
0.0
 10
263.9000436798
 20
218.0588731854
 30
0.0
 10
263.9703368447
 20
217.8851102586
 30
0.0
 10
264.0127556499
 20
217.7986697722
 30
0.0
  0
SPLINE
  5
33C
100
AcDbEntity
  8
0
100
AcDbSpline
 62
7
  6
CONTINUOUS
 70
0
 71
3
 72
11
 73
7
 74
0
 42
0.0000001
 43
0.0000001
 44
0.0000000001
 40
0.0
 40
0.0
 40
0.0
 40
0.0
 40
0.233663881
 40
0.4745869636
 40
0.7288023041
 40
1.0
 40
1.0
 40
1.0
 40
1.0
 10
311.9974865788
 20
207.5194166668
 30
0.0
 10
311.9729498141
 20
207.4401667754
 30
0.0
 10
311.9406466393
 20
207.2732168098
 30
0.0
 10
311.9462988902
 20
207.0127888998
 30
0.0
 10
312.0048239567
 20
206.745573358
 30
0.0
 10
312.0751171216
 20
206.5718104312
 30
0.0
 10
312.1175359268
 20
206.4853699449
 30
0.0
  0
SPLINE
  5
33D
100
AcDbEntity
  8
0
100
AcDbSpline
 62
7
  6
CONTINUOUS
 70
0
 71
3
 72
32
 73
28
 74
0
 42
0.0000001
 43
0.0000001
 44
0.0000000001
 40
0.0
 40
0.0
 40
0.0
 40
0.0
 40
0.0007156911
 40
0.0012163914
 40
0.001839872
 40
0.0034886747
 40
0.0057006125
 40
0.0084885128
 40
0.0118577048
 40
0.0158103796
 40
0.0203471982
 40
0.0311717829
 40
0.044317185
 40
0.0597497098
 40
0.0774323163
 40
0.0973270819
 40
0.119393964
 40
0.1698171359
 40
0.2282085315
 40
0.2940284918
 40
0.3666271172
 40
0.44532028
 40
0.5293338958
 40
0.6178566062
 40
0.7100761281
 40
0.8051745762
 40
1.0
 40
1.0
 40
1.0
 40
1.0
 10
146.662151119
 20
194.1159593225
 30
0.0
 10
146.6620806957
 20
194.1146254993
 30
0.0
 10
146.6606595679
 20
194.1125251569
 30
0.0
 10
146.6579269858
 20
194.1105048579
 30
0.0
 10
146.6533641842
 20
194.1079974416
 30
0.0
 10
146.6454723284
 20
194.1051460713
 30
0.0
 10
146.6334676479
 20
194.1019775026
 30
0.0
 10
146.618149378
 20
194.0988927323
 30
0.0
 10
146.5995212189
 20
194.0958791151
 30
0.0
 10
146.5775813811
 20
194.0929543686
 30
0.0
 10
146.5417584584
 20
194.0889380798
 30
0.0
 10
146.4887489063
 20
194.0843364325
 30
0.0
 10
146.4153721126
 20
194.079458267
 30
0.0
 10
146.3291501912
 20
194.0749885786
 30
0.0
 10
146.230300107
 20
194.0709444797
 30
0.0
 10
146.1190442213
 20
194.0673453545
 30
0.0
 10
145.9466826405
 20
194.0629685895
 30
0.0
 10
145.7024503601
 20
194.0589101279
 30
0.0
 10
145.3765430758
 20
194.0560969854
 30
0.0
 10
145.0092392957
 20
194.0552238434
 30
0.0
 10
144.6040477186
 20
194.056291751
 30
0.0
 10
144.1649108726
 20
194.0593129257
 30
0.0
 10
143.6960710905
 20
194.0642575482
 30
0.0
 10
143.2020087383
 20
194.0710985581
 30
0.0
 10
142.6872845605
 20
194.0797620759
 30
0.0
 10
141.9742334612
 20
194.0937170802
 30
0.0
 10
141.4332998875
 20
194.106429792
 30
0.0
 10
141.0698257244
 20
194.1159593225
 30
0.0
  0
SPLINE
  5
33E
100
AcDbEntity
  8
0
100
AcDbSpline
 62
7
  6
CONTINUOUS
 70
0
 71
3
 72
33
 73
29
 74
0
 42
0.0000001
 43
0.0000001
 44
0.0000000001
 40
0.0
 40
0.0
 40
0.0
 40
0.0
 40
0.0004248435
 40
0.0008243673
 40
0.0013649984
 40
0.002882001
 40
0.0049880135
 40
0.0076857602
 40
0.0109756818
 40
0.014857329
 40
0.0193298348
 40
0.0300427568
 40
0.0430951287
 40
0.0584508327
 40
0.0760717856
 40
0.0959196712
 40
0.1179543828
 40
0.1421208269
 40
0.168355973
 40
0.2267797441
 40
0.2926828623
 40
0.3654065002
 40
0.4442572347
 40
0.5284533914
 40
0.6171739179
 40
0.7095903977
 40
0.8048660248
 40
1.0
 40
1.0
 40
1.0
 40
1.0
 10
84.1429019187
 20
197.8357689566
 30
0.0
 10
84.1428627281
 20
197.8365602144
 30
0.0
 10
84.1445364205
 20
197.8376481553
 30
0.0
 10
84.1467554332
 20
197.8384974194
 30
0.0
 10
84.1512479366
 20
197.8397856807
 30
0.0
 10
84.1588362712
 20
197.8411668148
 30
0.0
 10
84.1705447701
 20
197.842754949
 30
0.0
 10
84.1855509076
 20
197.8442880859
 30
0.0
 10
84.2038970964
 20
197.8457978595
 30
0.0
 10
84.2255603379
 20
197.8472621118
 30
0.0
 10
84.2610595134
 20
197.8492782491
 30
0.0
 10
84.3136670835
 20
197.8515836068
 30
0.0
 10
84.3865780524
 20
197.8540226126
 30
0.0
 10
84.4723823401
 20
197.8562551013
 30
0.0
 10
84.5708666859
 20
197.8582739288
 30
0.0
 10
84.6818117806
 20
197.8600703145
 30
0.0
 10
84.8049670853
 20
197.8616376051
 30
0.0
 10
84.9400363841
 20
197.8629719361
 30
0.0
 10
85.1429631736
 20
197.8644893057
 30
0.0
 10
85.4237221063
 20
197.8657013574
 30
0.0
 10
85.791172625
 20
197.866140584
 30
0.0
 10
86.1967142179
 20
197.8656041746
 30
0.0
 10
86.6363654371
 20
197.8640878526
 30
0.0
 10
87.1058429198
 20
197.8616107935
 30
0.0
 10
87.600611864
 20
197.8581957434
 30
0.0
 10
88.1160349209
 20
197.8538721749
 30
0.0
 10
88.8298765209
 20
197.8468793276
 30
0.0
 10
89.3713815566
 20
197.8404966139
 30
0.0
 10
89.7352273076
 20
197.8357690651
 30
0.0
  0
SPLINE
  5
33F
100
AcDbEntity
  8
0
100
AcDbSpline
 62
7
  6
CONTINUOUS
 70
0
 71
3
 72
32
 73
28
 74
0
 42
0.0000001
 43
0.0000001
 44
0.0000000001
 40
0.0
 40
0.0
 40
0.0
 40
0.0
 40
0.194797035
 40
0.2898832454
 40
0.3821133001
 40
0.4706546638
 40
0.554684254
 40
0.633388909
 40
0.7059892208
 40
0.771804332
 40
0.830187946
 40
0.8806005304
 40
0.9026633859
 40
0.9225564118
 40
0.9402389832
 40
0.9556721646
 40
0.9688179023
 40
0.9796430087
 40
0.9841808784
 40
0.9881349517
 40
0.9915057355
 40
0.9942952673
 40
0.9965087245
 40
0.9981587866
 40
0.9987827574
 40
0.9992838393
 40
1.0
 40
1.0
 40
1.0
 40
1.0
 10
89.9301742756
 20
194.1159593225
 30
0.0
 10
89.5667529103
 20
194.106437675
 30
0.0
 10
89.0258952925
 20
194.0937217421
 30
0.0
 10
88.312900446
 20
194.0797626439
 30
0.0
 10
87.7981446291
 20
194.0710996157
 30
0.0
 10
87.3039979873
 20
194.0642590463
 30
0.0
 10
86.8350721458
 20
194.0593134663
 30
0.0
 10
86.3958809056
 20
194.0562908309
 30
0.0
 10
85.990673783
 20
194.055223739
 30
0.0
 10
85.623390439
 20
194.0560980487
 30
0.0
 10
85.2975264817
 20
194.0589096611
 30
0.0
 10
85.05333599
 20
194.0629673873
 30
0.0
 10
84.881004942
 20
194.0673441564
 30
0.0
 10
84.7697598899
 20
194.0709432255
 30
0.0
 10
84.6709118856
 20
194.0749870597
 30
0.0
 10
84.5846881519
 20
194.0794561999
 30
0.0
 10
84.5113084758
 20
194.0843336393
 30
0.0
 10
84.4582953203
 20
194.0889348014
 30
0.0
 10
84.4224667054
 20
194.0929500481
 30
0.0
 10
84.4005192061
 20
194.0958743771
 30
0.0
 10
84.3818822756
 20
194.0988877704
 30
0.0
 10
84.3665549902
 20
194.1019725744
 30
0.0
 10
84.354541897
 20
194.1051415344
 30
0.0
 10
84.3466437893
 20
194.1079934997
 30
0.0
 10
84.3420769123
 20
194.1105018454
 30
0.0
 10
84.339341877
 20
194.1125228896
 30
0.0
 10
84.3379192092
 20
194.1146246167
 30
0.0
 10
84.337848881
 20
194.1159593225
 30
0.0
  0
SPLINE
  5
340
100
AcDbEntity
  8
0
100
AcDbSpline
 62
7
  6
CONTINUOUS
 70
0
 71
3
 72
33
 73
29
 74
0
 42
0.0000001
 43
0.0000001
 44
0.0000000001
 40
0.0
 40
0.0
 40
0.0
 40
0.0
 40
0.1951175282
 40
0.2903891417
 40
0.382816406
 40
0.4715528187
 40
0.555763024
 40
0.6346246149
 40
0.7073484821
 40
0.773245276
 40
0.8316602376
 40
0.8578889998
 40
0.8820493754
 40
0.9040795895
 40
0.9239249363
 40
0.9415447046
 40
0.9568999562
 40
0.9699519866
 40
0.9806648106
 40
0.9851378153
 40
0.9890202193
 40
0.9923110529
 40
0.9950097638
 40
0.9971166888
 40
0.9986344459
 40
0.9991753596
 40
0.9995750821
 40
1.0
 40
1.0
 40
1.0
 40
1.0
 10
141.2647726867
 20
197.8357689566
 30
0.0
 10
141.6285877044
 20
197.8404970683
 30
0.0
 10
142.1700545119
 20
197.8468792642
 30
0.0
 10
142.8838779749
 20
197.8538706996
 30
0.0
 10
143.3993431979
 20
197.8581952599
 30
0.0
 10
143.8941879965
 20
197.8616112042
 30
0.0
 10
144.3637414776
 20
197.8640880113
 30
0.0
 10
144.8034395003
 20
197.8656046159
 30
0.0
 10
145.2089899133
 20
197.8661406382
 30
0.0
 10
145.5764125827
 20
197.8657008316
 30
0.0
 10
145.8571313504
 20
197.8644891603
 30
0.0
 10
146.0600184594
 20
197.8629716108
 30
0.0
 10
146.1950561292
 20
197.8616372925
 30
0.0
 10
146.3181869792
 20
197.860070252
 30
0.0
 10
146.4291167345
 20
197.8582744412
 30
0.0
 10
146.5275932898
 20
197.8562562156
 30
0.0
 10
146.6133938841
 20
197.8540241326
 30
0.0
 10
146.6863031808
 20
197.8515851041
 30
0.0
 10
146.7389108184
 20
197.8492789495
 30
0.0
 10
146.7744121316
 20
197.8472624635
 30
0.0
 10
146.7960793986
 20
197.845797927
 30
0.0
 10
146.8144305
 20
197.8442879211
 30
0.0
 10
146.8294418179
 20
197.8427546151
 30
0.0
 10
146.8411553209
 20
197.8411664018
 30
0.0
 10
146.848747202
 20
197.8397852976
 30
0.0
 10
146.8532423211
 20
197.8384971409
 30
0.0
 10
146.8554621452
 20
197.8376480683
 30
0.0
 10
146.8571373995
 20
197.8365604556
 30
0.0
 10
146.857098087
 20
197.8357690651
 30
0.0
  0
SPLINE
  5
341
100
AcDbEntity
  8
0
100
AcDbSpline
 62
7
  6
CONTINUOUS
 70
0
 71
3
 72
33
 73
29
 74
0
 42
0.0000001
 43
0.0000001
 44
0.0000000001
 40
0.0
 40
0.0
 40
0.0
 40
0.0
 40
0.1951175282
 40
0.2903891417
 40
0.382816406
 40
0.4715528187
 40
0.555763024
 40
0.6346246149
 40
0.7073484821
 40
0.773245276
 40
0.8316602376
 40
0.8578889998
 40
0.8820493754
 40
0.9040795895
 40
0.9239249363
 40
0.9415447046
 40
0.9568999562
 40
0.9699519866
 40
0.9806648106
 40
0.9851378153
 40
0.9890202193
 40
0.9923110529
 40
0.9950097638
 40
0.9971166888
 40
0.9986344459
 40
0.9991753596
 40
0.9995750821
 40
1.0
 40
1.0
 40
1.0
 40
1.0
 10
251.7232689566
 20
85.5477273133
 30
0.0
 10
251.7279970683
 20
85.1839122956
 30
0.0
 10
251.7343792642
 20
84.6424454881
 30
0.0
 10
251.7413706996
 20
83.9286220251
 30
0.0
 10
251.7456952599
 20
83.4131568021
 30
0.0
 10
251.7491112042
 20
82.9183120035
 30
0.0
 10
251.7515880113
 20
82.4487585224
 30
0.0
 10
251.7531046159
 20
82.0090604997
 30
0.0
 10
251.7536406382
 20
81.6035100867
 30
0.0
 10
251.7532008316
 20
81.2360874173
 30
0.0
 10
251.7519891603
 20
80.9553686496
 30
0.0
 10
251.7504716108
 20
80.7524815406
 30
0.0
 10
251.7491372925
 20
80.6174438708
 30
0.0
 10
251.747570252
 20
80.4943130208
 30
0.0
 10
251.7457744412
 20
80.3833832655
 30
0.0
 10
251.7437562156
 20
80.2849067102
 30
0.0
 10
251.7415241326
 20
80.1991061159
 30
0.0
 10
251.7390851041
 20
80.1261968192
 30
0.0
 10
251.7367789495
 20
80.0735891816
 30
0.0
 10
251.7347624635
 20
80.0380878684
 30
0.0
 10
251.733297927
 20
80.0164206014
 30
0.0
 10
251.7317879211
 20
79.9980695
 30
0.0
 10
251.7302546151
 20
79.9830581821
 30
0.0
 10
251.7286664018
 20
79.9713446791
 30
0.0
 10
251.7272852976
 20
79.963752798
 30
0.0
 10
251.7259971409
 20
79.9592576789
 30
0.0
 10
251.7251480683
 20
79.9570378548
 30
0.0
 10
251.7240604556
 20
79.9553626005
 30
0.0
 10
251.7232690651
 20
79.955401913
 30
0.0
  0
SPLINE
  5
342
100
AcDbEntity
  8
0
100
AcDbSpline
 62
7
  6
CONTINUOUS
 70
0
 71
3
 72
32
 73
28
 74
0
 42
0.0000001
 43
0.0000001
 44
0.0000000001
 40
0.0
 40
0.0
 40
0.0
 40
0.0
 40
0.0007156911
 40
0.0012163914
 40
0.001839872
 40
0.0034886747
 40
0.0057006125
 40
0.0084885128
 40
0.0118577048
 40
0.0158103796
 40
0.0203471982
 40
0.0311717829
 40
0.044317185
 40
0.0597497098
 40
0.0774323163
 40
0.0973270819
 40
0.119393964
 40
0.1698171359
 40
0.2282085315
 40
0.2940284918
 40
0.3666271172
 40
0.44532028
 40
0.5293338958
 40
0.6178566062
 40
0.7100761281
 40
0.8051745762
 40
1.0
 40
1.0
 40
1.0
 40
1.0
 10
248.0034593225
 20
80.150348881
 30
0.0
 10
248.0021254993
 20
80.1504193043
 30
0.0
 10
248.0000251569
 20
80.1518404321
 30
0.0
 10
247.9980048579
 20
80.1545730142
 30
0.0
 10
247.9954974416
 20
80.1591358158
 30
0.0
 10
247.9926460713
 20
80.1670276716
 30
0.0
 10
247.9894775026
 20
80.1790323521
 30
0.0
 10
247.9863927323
 20
80.194350622
 30
0.0
 10
247.9833791151
 20
80.2129787811
 30
0.0
 10
247.9804543686
 20
80.2349186189
 30
0.0
 10
247.9764380798
 20
80.2707415416
 30
0.0
 10
247.9718364325
 20
80.3237510937
 30
0.0
 10
247.966958267
 20
80.3971278874
 30
0.0
 10
247.9624885786
 20
80.4833498088
 30
0.0
 10
247.9584444797
 20
80.582199893
 30
0.0
 10
247.9548453545
 20
80.6934557787
 30
0.0
 10
247.9504685895
 20
80.8658173595
 30
0.0
 10
247.9464101279
 20
81.1100496399
 30
0.0
 10
247.9435969854
 20
81.4359569242
 30
0.0
 10
247.9427238434
 20
81.8032607043
 30
0.0
 10
247.943791751
 20
82.2084522814
 30
0.0
 10
247.9468129257
 20
82.6475891274
 30
0.0
 10
247.9517575482
 20
83.1164289095
 30
0.0
 10
247.9585985581
 20
83.6104912617
 30
0.0
 10
247.9672620759
 20
84.1252154395
 30
0.0
 10
247.9812170802
 20
84.8382665388
 30
0.0
 10
247.993929792
 20
85.3792001125
 30
0.0
 10
248.0034593225
 20
85.7426742756
 30
0.0
  0
SPLINE
  5
343
100
AcDbEntity
  8
0
100
AcDbSpline
 62
7
  6
CONTINUOUS
 70
0
 71
3
 72
33
 73
29
 74
0
 42
0.0000001
 43
0.0000001
 44
0.0000000001
 40
0.0
 40
0.0
 40
0.0
 40
0.0
 40
0.0004248435
 40
0.0008243673
 40
0.0013649984
 40
0.002882001
 40
0.0049880135
 40
0.0076857602
 40
0.0109756818
 40
0.014857329
 40
0.0193298348
 40
0.0300427568
 40
0.0430951287
 40
0.0584508327
 40
0.0760717856
 40
0.0959196712
 40
0.1179543828
 40
0.1421208269
 40
0.168355973
 40
0.2267797441
 40
0.2926828623
 40
0.3654065002
 40
0.4442572347
 40
0.5284533914
 40
0.6171739179
 40
0.7095903977
 40
0.8048660248
 40
1.0
 40
1.0
 40
1.0
 40
1.0
 10
251.7232689566
 20
114.6695980813
 30
0.0
 10
251.7240602144
 20
114.6696372719
 30
0.0
 10
251.7251481553
 20
114.6679635795
 30
0.0
 10
251.7259974194
 20
114.6657445668
 30
0.0
 10
251.7272856807
 20
114.6612520634
 30
0.0
 10
251.7286668148
 20
114.6536637288
 30
0.0
 10
251.730254949
 20
114.6419552299
 30
0.0
 10
251.7317880859
 20
114.6269490924
 30
0.0
 10
251.7332978595
 20
114.6086029036
 30
0.0
 10
251.7347621118
 20
114.5869396621
 30
0.0
 10
251.7367782491
 20
114.5514404866
 30
0.0
 10
251.7390836068
 20
114.4988329165
 30
0.0
 10
251.7415226126
 20
114.4259219476
 30
0.0
 10
251.7437551013
 20
114.3401176599
 30
0.0
 10
251.7457739288
 20
114.2416333141
 30
0.0
 10
251.7475703145
 20
114.1306882194
 30
0.0
 10
251.7491376051
 20
114.0075329147
 30
0.0
 10
251.7504719361
 20
113.8724636159
 30
0.0
 10
251.7519893057
 20
113.6695368264
 30
0.0
 10
251.7532013574
 20
113.3887778937
 30
0.0
 10
251.753640584
 20
113.021327375
 30
0.0
 10
251.7531041746
 20
112.6157857821
 30
0.0
 10
251.7515878526
 20
112.1761345629
 30
0.0
 10
251.7491107935
 20
111.7066570802
 30
0.0
 10
251.7456957434
 20
111.211888136
 30
0.0
 10
251.7413721749
 20
110.6964650791
 30
0.0
 10
251.7343793276
 20
109.9826234791
 30
0.0
 10
251.7279966139
 20
109.4411184434
 30
0.0
 10
251.7232690651
 20
109.0772726924
 30
0.0
  0
SPLINE
  5
344
100
AcDbEntity
  8
0
100
AcDbSpline
 62
7
  6
CONTINUOUS
 70
0
 71
3
 72
32
 73
28
 74
0
 42
0.0000001
 43
0.0000001
 44
0.0000000001
 40
0.0
 40
0.0
 40
0.0
 40
0.0
 40
0.194797035
 40
0.2898832454
 40
0.3821133001
 40
0.4706546638
 40
0.554684254
 40
0.633388909
 40
0.7059892208
 40
0.771804332
 40
0.830187946
 40
0.8806005304
 40
0.9026633859
 40
0.9225564118
 40
0.9402389832
 40
0.9556721646
 40
0.9688179023
 40
0.9796430087
 40
0.9841808784
 40
0.9881349517
 40
0.9915057355
 40
0.9942952673
 40
0.9965087245
 40
0.9981587866
 40
0.9987827574
 40
0.9992838393
 40
1.0
 40
1.0
 40
1.0
 40
1.0
 10
248.0034593225
 20
108.8823257244
 30
0.0
 10
247.993937675
 20
109.2457470897
 30
0.0
 10
247.9812217421
 20
109.7866047075
 30
0.0
 10
247.9672626439
 20
110.499599554
 30
0.0
 10
247.9585996157
 20
111.0143553709
 30
0.0
 10
247.9517590463
 20
111.5085020127
 30
0.0
 10
247.9468134663
 20
111.9774278542
 30
0.0
 10
247.9437908309
 20
112.4166190944
 30
0.0
 10
247.942723739
 20
112.821826217
 30
0.0
 10
247.9435980487
 20
113.189109561
 30
0.0
 10
247.9464096611
 20
113.5149735183
 30
0.0
 10
247.9504673873
 20
113.75916401
 30
0.0
 10
247.9548441564
 20
113.931495058
 30
0.0
 10
247.9584432255
 20
114.0427401101
 30
0.0
 10
247.9624870597
 20
114.1415881144
 30
0.0
 10
247.9669561999
 20
114.2278118481
 30
0.0
 10
247.9718336393
 20
114.3011915242
 30
0.0
 10
247.9764348014
 20
114.3542046797
 30
0.0
 10
247.9804500481
 20
114.3900332946
 30
0.0
 10
247.9833743771
 20
114.4119807939
 30
0.0
 10
247.9863877704
 20
114.4306177244
 30
0.0
 10
247.9894725744
 20
114.4459450098
 30
0.0
 10
247.9926415344
 20
114.457958103
 30
0.0
 10
247.9954934997
 20
114.4658562107
 30
0.0
 10
247.9980018454
 20
114.4704230877
 30
0.0
 10
248.0000228896
 20
114.473158123
 30
0.0
 10
248.0021246167
 20
114.4745807908
 30
0.0
 10
248.0034593225
 20
114.474651119
 30
0.0
  0
ELLIPSE
  5
345
100
AcDbEntity
  8
0
100
AcDbEllipse
 62
7
  6
CONTINUOUS
 10
313.7112299962
 20
226.661481129
 30
0.0
 11
6.6921096906
 21
-2.0585910654
 31
0.0
 40
0.5738518836
 41
0.4948108893
 42
2.0628681603
  0
ELLIPSE
  5
346
100
AcDbEntity
  8
0
100
AcDbEllipse
 62
7
  6
CONTINUOUS
 10
320.9653605155
 20
211.8791088638
 30
0.0
 11
6.7021446605
 21
-2.0804792783
 31
0.0
 40
0.5712299821
 41
-0.0493898616
 42
0.4950411828
  0
ELLIPSE
  5
347
100
AcDbEntity
  8
0
100
AcDbEllipse
 62
7
  6
CONTINUOUS
 10
320.5365077148
 20
210.8280592211
 30
0.0
 11
6.7021446605
 21
-2.0804792783
 31
0.0
 40
0.5712299821
 41
5.5975333971
 42
6.77822649
  0
ELLIPSE
  5
348
100
AcDbEntity
  8
0
100
AcDbEllipse
 62
7
  6
CONTINUOUS
 10
265.7690295332
 20
225.5192153447
 30
0.0
 11
6.7021446605
 21
-2.0804792783
 31
0.0
 40
0.5712299821
 41
2.0685765654
 42
3.6366338364
  0
ELLIPSE
  5
349
100
AcDbEntity
  8
0
100
AcDbEllipse
 62
7
  6
CONTINUOUS
 10
266.0179618333
 20
226.661481129
 30
0.0
 11
6.7021446605
 21
-2.0804792783
 31
0.0
 40
0.5712299821
 41
2.0685765654
 42
3.191017106
  0
ELLIPSE
  5
34A
100
AcDbEntity
  8
0
100
AcDbEllipse
 62
7
  6
CONTINUOUS
 10
313.3271395507
 20
225.5192153447
 30
0.0
 11
6.6921096906
 21
-2.0585910654
 31
0.0
 40
0.5738518836
 41
0.4948108893
 42
2.0628681603
  0
ELLIPSE
  5
34B
100
AcDbEntity
  8
0
100
AcDbEllipse
 62
7
  6
CONTINUOUS
 10
141.317022687
 20
85.495477313
 30
0.0
 11
4.963323704
 21
-4.963323704
 31
0.0
 40
0.9972646886
 41
-0.7840286355
 42
0.7840286355
  0
ELLIPSE
  5
34C
100
AcDbEntity
  8
0
100
AcDbEllipse
 62
7
  6
CONTINUOUS
 10
89.682977313
 20
85.495477313
 30
0.0
 11
4.963323704
 21
4.963323704
 31
0.0
 40
0.9972646886
 41
-3.9256212891
 42
-2.3575640181
  0
ELLIPSE
  5
34D
100
AcDbEntity
  8
0
100
AcDbEllipse
 62
7
  6
CONTINUOUS
 10
89.682977313
 20
109.129522687
 30
0.0
 11
4.963323704
 21
-4.963323704
 31
0.0
 40
0.9972646886
 41
2.3575640181
 42
3.9256212891
  0
ELLIPSE
  5
34E
100
AcDbEntity
  8
0
100
AcDbEllipse
 62
7
  6
CONTINUOUS
 10
141.317022687
 20
109.129522687
 30
0.0
 11
4.963323704
 21
4.963323704
 31
0.0
 40
0.9972646886
 41
-0.7840286355
 42
0.7840286355
  0
ELLIPSE
  5
34F
100
AcDbEntity
  8
0
100
AcDbEllipse
 62
7
  6
CONTINUOUS
 10
141.390393578
 20
109.202893578
 30
0.0
 11
4.963323704
 21
4.963323704
 31
0.0
 40
0.9972646886
 41
-0.7840286355
 42
0.7840286355
  0
ELLIPSE
  5
350
100
AcDbEntity
  8
0
100
AcDbEllipse
 62
7
  6
CONTINUOUS
 10
141.390393578
 20
85.422106422
 30
0.0
 11
4.963323704
 21
-4.963323704
 31
0.0
 40
0.9972646886
 41
-0.7840286355
 42
0.7840286355
  0
ELLIPSE
  5
351
100
AcDbEntity
  8
0
100
AcDbEllipse
 62
7
  6
CONTINUOUS
 10
89.609606422
 20
109.202893578
 30
0.0
 11
4.963323704
 21
-4.963323704
 31
0.0
 40
0.9972646886
 41
2.3575640181
 42
3.9256212891
  0
ELLIPSE
  5
352
100
AcDbEntity
  8
0
100
AcDbEllipse
 62
7
  6
CONTINUOUS
 10
89.609606422
 20
85.422106422
 30
0.0
 11
4.963323704
 21
4.963323704
 31
0.0
 40
0.9972646886
 41
-3.9256212891
 42
-2.3575640181
  0
ENDSEC
  0
SECTION
  2
OBJECTS
  0
DICTIONARY
  5
353
100
AcDbDictionary
  3
ACAD_GROUP
350
354
  3
ACAD_MLINESTYLE
350
355
  0
DICTIONARY
  5
354
102
{ACAD_REACTORS
330
353
102
}
100
AcDbDictionary
  0
DICTIONARY
  5
355
102
{ACAD_REACTORS
330
353
102
}
100
AcDbDictionary
  3
STANDARD
350
356
  0
MLINESTYLE
  5
356
102
{ACAD_REACTORS
330
355
102
}
100
AcDbMlineStyle
  2
STANDARD
 70
0
  3

 62
256
 51
90.0
 52
90.0
 71
2
 49
0.5
 62
256
  6
BYLAYER
 49
-0.5
 62
256
  6
BYLAYER
  0
ENDSEC
  0
EOF
